<?xml version="1.0" encoding="utf-8" standalone="no"?>
<!DOCTYPE svg PUBLIC "-//W3C//DTD SVG 1.1//EN"
  "http://www.w3.org/Graphics/SVG/1.1/DTD/svg11.dtd">
<svg xmlns:xlink="http://www.w3.org/1999/xlink" width="792pt" height="792pt" viewBox="0 0 792 792" xmlns="http://www.w3.org/2000/svg" version="1.1">
 <metadata>
  <rdf:RDF xmlns:dc="http://purl.org/dc/elements/1.1/" xmlns:cc="http://creativecommons.org/ns#" xmlns:rdf="http://www.w3.org/1999/02/22-rdf-syntax-ns#">
   <cc:Work>
    <dc:type rdf:resource="http://purl.org/dc/dcmitype/StillImage"/>
    <dc:date>2026-08-25T09:54:46.666982</dc:date>
    <dc:format>image/svg+xml</dc:format>
    <dc:creator>
     <cc:Agent>
      <dc:title>Matplotlib v3.8.4, https://matplotlib.org/</dc:title>
     </cc:Agent>
    </dc:creator>
   </cc:Work>
  </rdf:RDF>
 </metadata>
 <defs>
  <style type="text/css">*{stroke-linejoin: round; stroke-linecap: butt}</style>
 </defs>
 <g id="figure_1">
  <g id="patch_1">
   <path d="M 0 792 
L 792 792 
L 792 0 
L 0 0 
z
" style="fill: #ffffff"/>
  </g>
  <g id="axes_1">
   <g id="patch_2">
    <path d="M 213.905455 280.462473 
C 224.121078 280.462473 233.919671 276.567375 241.143208 269.635031 
C 248.366744 262.702686 252.425455 253.299089 252.425455 243.495273 
C 252.425455 233.691457 248.366744 224.28786 241.143208 217.355515 
C 233.919671 210.42317 224.121078 206.528073 213.905455 206.528073 
C 203.689831 206.528073 193.891238 210.42317 186.667701 217.355515 
C 179.444165 224.28786 175.385455 233.691457 175.385455 243.495273 
C 175.385455 253.299089 179.444165 262.702686 186.667701 269.635031 
C 193.891238 276.567375 203.689831 280.462473 213.905455 280.462473 
L 213.905455 280.462473 
z
" clip-path="url(#p4701802f03)" style="fill: none; stroke-dasharray: 4,3; stroke-dashoffset: 0; stroke: #95a5a6; stroke-linejoin: miter"/>
   </g>
   <g id="patch_3">
    <path d="M 213.905455 307.347709 
C 231.550622 307.347709 248.475465 300.619814 260.952483 288.645763 
C 273.429501 276.671713 280.44 260.429137 280.44 243.495273 
C 280.44 226.561409 273.429501 210.318832 260.952483 198.344782 
C 248.475465 186.370732 231.550622 179.642836 213.905455 179.642836 
C 196.260287 179.642836 179.335444 186.370732 166.858426 198.344782 
C 154.381409 210.318832 147.370909 226.561409 147.370909 243.495273 
C 147.370909 260.429137 154.381409 276.671713 166.858426 288.645763 
C 179.335444 300.619814 196.260287 307.347709 213.905455 307.347709 
L 213.905455 307.347709 
z
" clip-path="url(#p4701802f03)" style="fill: none; stroke-dasharray: 4,3; stroke-dashoffset: 0; stroke: #95a5a6; stroke-linejoin: miter"/>
   </g>
   <g id="patch_4">
    <path d="M 213.905455 334.232945 
C 238.980167 334.232945 263.031259 324.672252 280.761758 307.656496 
C 298.492257 290.640741 308.454545 267.559185 308.454545 243.495273 
C 308.454545 219.431361 298.492257 196.349804 280.761758 179.334049 
C 263.031259 162.318294 238.980167 152.7576 213.905455 152.7576 
C 188.830743 152.7576 164.77965 162.318294 147.049151 179.334049 
C 129.318652 196.349804 119.356364 219.431361 119.356364 243.495273 
C 119.356364 267.559185 129.318652 290.640741 147.049151 307.656496 
C 164.77965 324.672252 188.830743 334.232945 213.905455 334.232945 
L 213.905455 334.232945 
z
" clip-path="url(#p4701802f03)" style="fill: none; stroke-dasharray: 4,3; stroke-dashoffset: 0; stroke: #95a5a6; stroke-linejoin: miter"/>
   </g>
   <g id="patch_5">
    <path d="M 578.094545 280.462473 
C 588.310169 280.462473 598.108762 276.567375 605.332299 269.635031 
C 612.555835 262.702686 616.614545 253.299089 616.614545 243.495273 
C 616.614545 233.691457 612.555835 224.28786 605.332299 217.355515 
C 598.108762 210.42317 588.310169 206.528073 578.094545 206.528073 
C 567.878922 206.528073 558.080329 210.42317 550.856792 217.355515 
C 543.633256 224.28786 539.574545 233.691457 539.574545 243.495273 
C 539.574545 253.299089 543.633256 262.702686 550.856792 269.635031 
C 558.080329 276.567375 567.878922 280.462473 578.094545 280.462473 
L 578.094545 280.462473 
z
" clip-path="url(#p4701802f03)" style="fill: none; stroke-dasharray: 4,3; stroke-dashoffset: 0; stroke: #95a5a6; stroke-linejoin: miter"/>
   </g>
   <g id="patch_6">
    <path d="M 578.094545 307.347709 
C 595.739713 307.347709 612.664556 300.619814 625.141574 288.645763 
C 637.618591 276.671713 644.629091 260.429137 644.629091 243.495273 
C 644.629091 226.561409 637.618591 210.318832 625.141574 198.344782 
C 612.664556 186.370732 595.739713 179.642836 578.094545 179.642836 
C 560.449378 179.642836 543.524535 186.370732 531.047517 198.344782 
C 518.570499 210.318832 511.56 226.561409 511.56 243.495273 
C 511.56 260.429137 518.570499 276.671713 531.047517 288.645763 
C 543.524535 300.619814 560.449378 307.347709 578.094545 307.347709 
L 578.094545 307.347709 
z
" clip-path="url(#p4701802f03)" style="fill: none; stroke-dasharray: 4,3; stroke-dashoffset: 0; stroke: #95a5a6; stroke-linejoin: miter"/>
   </g>
   <g id="patch_7">
    <path d="M 213.905455 643.413164 
C 224.121078 643.413164 233.919671 639.518066 241.143208 632.585721 
C 248.366744 625.653377 252.425455 616.24978 252.425455 606.445964 
C 252.425455 596.642148 248.366744 587.238551 241.143208 580.306206 
C 233.919671 573.373861 224.121078 569.478764 213.905455 569.478764 
C 203.689831 569.478764 193.891238 573.373861 186.667701 580.306206 
C 179.444165 587.238551 175.385455 596.642148 175.385455 606.445964 
C 175.385455 616.24978 179.444165 625.653377 186.667701 632.585721 
C 193.891238 639.518066 203.689831 643.413164 213.905455 643.413164 
L 213.905455 643.413164 
z
" clip-path="url(#p4701802f03)" style="fill: none; stroke-dasharray: 4,3; stroke-dashoffset: 0; stroke: #95a5a6; stroke-linejoin: miter"/>
   </g>
   <g id="patch_8">
    <path d="M 213.905455 670.2984 
C 231.550622 670.2984 248.475465 663.570504 260.952483 651.596454 
C 273.429501 639.622404 280.44 623.379828 280.44 606.445964 
C 280.44 589.5121 273.429501 573.269523 260.952483 561.295473 
C 248.475465 549.321423 231.550622 542.593527 213.905455 542.593527 
C 196.260287 542.593527 179.335444 549.321423 166.858426 561.295473 
C 154.381409 573.269523 147.370909 589.5121 147.370909 606.445964 
C 147.370909 623.379828 154.381409 639.622404 166.858426 651.596454 
C 179.335444 663.570504 196.260287 670.2984 213.905455 670.2984 
L 213.905455 670.2984 
z
" clip-path="url(#p4701802f03)" style="fill: none; stroke-dasharray: 4,3; stroke-dashoffset: 0; stroke: #95a5a6; stroke-linejoin: miter"/>
   </g>
   <g id="patch_9">
    <path d="M 578.094545 643.413164 
C 588.310169 643.413164 598.108762 639.518066 605.332299 632.585721 
C 612.555835 625.653377 616.614545 616.24978 616.614545 606.445964 
C 616.614545 596.642148 612.555835 587.238551 605.332299 580.306206 
C 598.108762 573.373861 588.310169 569.478764 578.094545 569.478764 
C 567.878922 569.478764 558.080329 573.373861 550.856792 580.306206 
C 543.633256 587.238551 539.574545 596.642148 539.574545 606.445964 
C 539.574545 616.24978 543.633256 625.653377 550.856792 632.585721 
C 558.080329 639.518066 567.878922 643.413164 578.094545 643.413164 
L 578.094545 643.413164 
z
" clip-path="url(#p4701802f03)" style="fill: none; stroke-dasharray: 4,3; stroke-dashoffset: 0; stroke: #95a5a6; stroke-linejoin: miter"/>
   </g>
   <g id="patch_10">
    <path d="M 578.094545 670.2984 
C 595.739713 670.2984 612.664556 663.570504 625.141574 651.596454 
C 637.618591 639.622404 644.629091 623.379828 644.629091 606.445964 
C 644.629091 589.5121 637.618591 573.269523 625.141574 561.295473 
C 612.664556 549.321423 595.739713 542.593527 578.094545 542.593527 
C 560.449378 542.593527 543.524535 549.321423 531.047517 561.295473 
C 518.570499 573.269523 511.56 589.5121 511.56 606.445964 
C 511.56 623.379828 518.570499 639.622404 531.047517 651.596454 
C 543.524535 663.570504 560.449378 670.2984 578.094545 670.2984 
L 578.094545 670.2984 
z
" clip-path="url(#p4701802f03)" style="fill: none; stroke-dasharray: 4,3; stroke-dashoffset: 0; stroke: #95a5a6; stroke-linejoin: miter"/>
   </g>
   <g id="patch_11">
    <path d="M 213.905455 267.691985 
C 220.592044 267.691985 227.005669 265.142467 231.733802 260.604932 
C 236.461935 256.067398 239.118545 249.912316 239.118545 243.495273 
C 239.118545 237.07823 236.461935 230.923148 231.733802 226.385613 
C 227.005669 221.848078 220.592044 219.29856 213.905455 219.29856 
C 207.218865 219.29856 200.80524 221.848078 196.077107 226.385613 
C 191.348974 230.923148 188.692364 237.07823 188.692364 243.495273 
C 188.692364 249.912316 191.348974 256.067398 196.077107 260.604932 
C 200.80524 265.142467 207.218865 267.691985 213.905455 267.691985 
z
" clip-path="url(#p4701802f03)" style="fill: #34495e"/>
   </g>
   <g id="text_1">
    <!-- Na atom  (2, 8, 1) -->
    <g transform="translate(164.428892 125.872364) scale(0.1 -0.1)">
     <defs>
      <path id="DejaVuSans-Bold-4e" d="M 588 4666 
L 1931 4666 
L 3628 1466 
L 3628 4666 
L 4769 4666 
L 4769 0 
L 3425 0 
L 1728 3200 
L 1728 0 
L 588 0 
L 588 4666 
z
" transform="scale(0.015625)"/>
      <path id="DejaVuSans-Bold-61" d="M 2106 1575 
Q 1756 1575 1579 1456 
Q 1403 1338 1403 1106 
Q 1403 894 1545 773 
Q 1688 653 1941 653 
Q 2256 653 2472 879 
Q 2688 1106 2688 1447 
L 2688 1575 
L 2106 1575 
z
M 3816 1997 
L 3816 0 
L 2688 0 
L 2688 519 
Q 2463 200 2181 54 
Q 1900 -91 1497 -91 
Q 953 -91 614 226 
Q 275 544 275 1050 
Q 275 1666 698 1953 
Q 1122 2241 2028 2241 
L 2688 2241 
L 2688 2328 
Q 2688 2594 2478 2717 
Q 2269 2841 1825 2841 
Q 1466 2841 1156 2769 
Q 847 2697 581 2553 
L 581 3406 
Q 941 3494 1303 3539 
Q 1666 3584 2028 3584 
Q 2975 3584 3395 3211 
Q 3816 2838 3816 1997 
z
" transform="scale(0.015625)"/>
      <path id="DejaVuSans-Bold-20" transform="scale(0.015625)"/>
      <path id="DejaVuSans-Bold-74" d="M 1759 4494 
L 1759 3500 
L 2913 3500 
L 2913 2700 
L 1759 2700 
L 1759 1216 
Q 1759 972 1856 886 
Q 1953 800 2241 800 
L 2816 800 
L 2816 0 
L 1856 0 
Q 1194 0 917 276 
Q 641 553 641 1216 
L 641 2700 
L 84 2700 
L 84 3500 
L 641 3500 
L 641 4494 
L 1759 4494 
z
" transform="scale(0.015625)"/>
      <path id="DejaVuSans-Bold-6f" d="M 2203 2784 
Q 1831 2784 1636 2517 
Q 1441 2250 1441 1747 
Q 1441 1244 1636 976 
Q 1831 709 2203 709 
Q 2569 709 2762 976 
Q 2956 1244 2956 1747 
Q 2956 2250 2762 2517 
Q 2569 2784 2203 2784 
z
M 2203 3584 
Q 3106 3584 3614 3096 
Q 4122 2609 4122 1747 
Q 4122 884 3614 396 
Q 3106 -91 2203 -91 
Q 1297 -91 786 396 
Q 275 884 275 1747 
Q 275 2609 786 3096 
Q 1297 3584 2203 3584 
z
" transform="scale(0.015625)"/>
      <path id="DejaVuSans-Bold-6d" d="M 3781 2919 
Q 3994 3244 4286 3414 
Q 4578 3584 4928 3584 
Q 5531 3584 5847 3212 
Q 6163 2841 6163 2131 
L 6163 0 
L 5038 0 
L 5038 1825 
Q 5041 1866 5042 1909 
Q 5044 1953 5044 2034 
Q 5044 2406 4934 2573 
Q 4825 2741 4581 2741 
Q 4263 2741 4089 2478 
Q 3916 2216 3909 1719 
L 3909 0 
L 2784 0 
L 2784 1825 
Q 2784 2406 2684 2573 
Q 2584 2741 2328 2741 
Q 2006 2741 1831 2477 
Q 1656 2213 1656 1722 
L 1656 0 
L 531 0 
L 531 3500 
L 1656 3500 
L 1656 2988 
Q 1863 3284 2130 3434 
Q 2397 3584 2719 3584 
Q 3081 3584 3359 3409 
Q 3638 3234 3781 2919 
z
" transform="scale(0.015625)"/>
      <path id="DejaVuSans-Bold-28" d="M 2413 -844 
L 1484 -844 
Q 1006 -72 778 623 
Q 550 1319 550 2003 
Q 550 2688 779 3389 
Q 1009 4091 1484 4856 
L 2413 4856 
Q 2013 4116 1813 3408 
Q 1613 2700 1613 2009 
Q 1613 1319 1811 609 
Q 2009 -100 2413 -844 
z
" transform="scale(0.015625)"/>
      <path id="DejaVuSans-Bold-32" d="M 1844 884 
L 3897 884 
L 3897 0 
L 506 0 
L 506 884 
L 2209 2388 
Q 2438 2594 2547 2791 
Q 2656 2988 2656 3200 
Q 2656 3528 2436 3728 
Q 2216 3928 1850 3928 
Q 1569 3928 1234 3808 
Q 900 3688 519 3450 
L 519 4475 
Q 925 4609 1322 4679 
Q 1719 4750 2100 4750 
Q 2938 4750 3402 4381 
Q 3866 4013 3866 3353 
Q 3866 2972 3669 2642 
Q 3472 2313 2841 1759 
L 1844 884 
z
" transform="scale(0.015625)"/>
      <path id="DejaVuSans-Bold-2c" d="M 653 1209 
L 1778 1209 
L 1778 256 
L 1006 -909 
L 341 -909 
L 653 256 
L 653 1209 
z
" transform="scale(0.015625)"/>
      <path id="DejaVuSans-Bold-38" d="M 2228 2088 
Q 1891 2088 1709 1903 
Q 1528 1719 1528 1375 
Q 1528 1031 1709 848 
Q 1891 666 2228 666 
Q 2563 666 2741 848 
Q 2919 1031 2919 1375 
Q 2919 1722 2741 1905 
Q 2563 2088 2228 2088 
z
M 1350 2484 
Q 925 2613 709 2878 
Q 494 3144 494 3541 
Q 494 4131 934 4440 
Q 1375 4750 2228 4750 
Q 3075 4750 3515 4442 
Q 3956 4134 3956 3541 
Q 3956 3144 3739 2878 
Q 3522 2613 3097 2484 
Q 3572 2353 3814 2058 
Q 4056 1763 4056 1313 
Q 4056 619 3595 264 
Q 3134 -91 2228 -91 
Q 1319 -91 855 264 
Q 391 619 391 1313 
Q 391 1763 633 2058 
Q 875 2353 1350 2484 
z
M 1631 3419 
Q 1631 3141 1786 2991 
Q 1941 2841 2228 2841 
Q 2509 2841 2662 2991 
Q 2816 3141 2816 3419 
Q 2816 3697 2662 3845 
Q 2509 3994 2228 3994 
Q 1941 3994 1786 3844 
Q 1631 3694 1631 3419 
z
" transform="scale(0.015625)"/>
      <path id="DejaVuSans-Bold-31" d="M 750 831 
L 1813 831 
L 1813 3847 
L 722 3622 
L 722 4441 
L 1806 4666 
L 2950 4666 
L 2950 831 
L 4013 831 
L 4013 0 
L 750 0 
L 750 831 
z
" transform="scale(0.015625)"/>
      <path id="DejaVuSans-Bold-29" d="M 513 -844 
Q 913 -100 1113 609 
Q 1313 1319 1313 2009 
Q 1313 2700 1113 3408 
Q 913 4116 513 4856 
L 1441 4856 
Q 1916 4091 2145 3389 
Q 2375 2688 2375 2003 
Q 2375 1319 2147 623 
Q 1919 -72 1441 -844 
L 513 -844 
z
" transform="scale(0.015625)"/>
     </defs>
     <use xlink:href="#DejaVuSans-Bold-4e"/>
     <use xlink:href="#DejaVuSans-Bold-61" x="83.691406"/>
     <use xlink:href="#DejaVuSans-Bold-20" x="151.171875"/>
     <use xlink:href="#DejaVuSans-Bold-61" x="185.986328"/>
     <use xlink:href="#DejaVuSans-Bold-74" x="253.466797"/>
     <use xlink:href="#DejaVuSans-Bold-6f" x="301.269531"/>
     <use xlink:href="#DejaVuSans-Bold-6d" x="369.970703"/>
     <use xlink:href="#DejaVuSans-Bold-20" x="474.169922"/>
     <use xlink:href="#DejaVuSans-Bold-20" x="508.984375"/>
     <use xlink:href="#DejaVuSans-Bold-28" x="543.798828"/>
     <use xlink:href="#DejaVuSans-Bold-32" x="589.501953"/>
     <use xlink:href="#DejaVuSans-Bold-2c" x="659.082031"/>
     <use xlink:href="#DejaVuSans-Bold-20" x="697.070312"/>
     <use xlink:href="#DejaVuSans-Bold-38" x="731.884766"/>
     <use xlink:href="#DejaVuSans-Bold-2c" x="801.464844"/>
     <use xlink:href="#DejaVuSans-Bold-20" x="839.453125"/>
     <use xlink:href="#DejaVuSans-Bold-31" x="874.267578"/>
     <use xlink:href="#DejaVuSans-Bold-29" x="943.847656"/>
    </g>
   </g>
   <g id="text_2">
    <!-- 1 valence electron, -->
    <g style="fill: #444444" transform="translate(173.22897 364.216199) scale(0.085 -0.085)">
     <defs>
      <path id="DejaVuSans-31" d="M 794 531 
L 1825 531 
L 1825 4091 
L 703 3866 
L 703 4441 
L 1819 4666 
L 2450 4666 
L 2450 531 
L 3481 531 
L 3481 0 
L 794 0 
L 794 531 
z
" transform="scale(0.015625)"/>
      <path id="DejaVuSans-20" transform="scale(0.015625)"/>
      <path id="DejaVuSans-76" d="M 191 3500 
L 800 3500 
L 1894 563 
L 2988 3500 
L 3597 3500 
L 2284 0 
L 1503 0 
L 191 3500 
z
" transform="scale(0.015625)"/>
      <path id="DejaVuSans-61" d="M 2194 1759 
Q 1497 1759 1228 1600 
Q 959 1441 959 1056 
Q 959 750 1161 570 
Q 1363 391 1709 391 
Q 2188 391 2477 730 
Q 2766 1069 2766 1631 
L 2766 1759 
L 2194 1759 
z
M 3341 1997 
L 3341 0 
L 2766 0 
L 2766 531 
Q 2569 213 2275 61 
Q 1981 -91 1556 -91 
Q 1019 -91 701 211 
Q 384 513 384 1019 
Q 384 1609 779 1909 
Q 1175 2209 1959 2209 
L 2766 2209 
L 2766 2266 
Q 2766 2663 2505 2880 
Q 2244 3097 1772 3097 
Q 1472 3097 1187 3025 
Q 903 2953 641 2809 
L 641 3341 
Q 956 3463 1253 3523 
Q 1550 3584 1831 3584 
Q 2591 3584 2966 3190 
Q 3341 2797 3341 1997 
z
" transform="scale(0.015625)"/>
      <path id="DejaVuSans-6c" d="M 603 4863 
L 1178 4863 
L 1178 0 
L 603 0 
L 603 4863 
z
" transform="scale(0.015625)"/>
      <path id="DejaVuSans-65" d="M 3597 1894 
L 3597 1613 
L 953 1613 
Q 991 1019 1311 708 
Q 1631 397 2203 397 
Q 2534 397 2845 478 
Q 3156 559 3463 722 
L 3463 178 
Q 3153 47 2828 -22 
Q 2503 -91 2169 -91 
Q 1331 -91 842 396 
Q 353 884 353 1716 
Q 353 2575 817 3079 
Q 1281 3584 2069 3584 
Q 2775 3584 3186 3129 
Q 3597 2675 3597 1894 
z
M 3022 2063 
Q 3016 2534 2758 2815 
Q 2500 3097 2075 3097 
Q 1594 3097 1305 2825 
Q 1016 2553 972 2059 
L 3022 2063 
z
" transform="scale(0.015625)"/>
      <path id="DejaVuSans-6e" d="M 3513 2113 
L 3513 0 
L 2938 0 
L 2938 2094 
Q 2938 2591 2744 2837 
Q 2550 3084 2163 3084 
Q 1697 3084 1428 2787 
Q 1159 2491 1159 1978 
L 1159 0 
L 581 0 
L 581 3500 
L 1159 3500 
L 1159 2956 
Q 1366 3272 1645 3428 
Q 1925 3584 2291 3584 
Q 2894 3584 3203 3211 
Q 3513 2838 3513 2113 
z
" transform="scale(0.015625)"/>
      <path id="DejaVuSans-63" d="M 3122 3366 
L 3122 2828 
Q 2878 2963 2633 3030 
Q 2388 3097 2138 3097 
Q 1578 3097 1268 2742 
Q 959 2388 959 1747 
Q 959 1106 1268 751 
Q 1578 397 2138 397 
Q 2388 397 2633 464 
Q 2878 531 3122 666 
L 3122 134 
Q 2881 22 2623 -34 
Q 2366 -91 2075 -91 
Q 1284 -91 818 406 
Q 353 903 353 1747 
Q 353 2603 823 3093 
Q 1294 3584 2113 3584 
Q 2378 3584 2631 3529 
Q 2884 3475 3122 3366 
z
" transform="scale(0.015625)"/>
      <path id="DejaVuSans-74" d="M 1172 4494 
L 1172 3500 
L 2356 3500 
L 2356 3053 
L 1172 3053 
L 1172 1153 
Q 1172 725 1289 603 
Q 1406 481 1766 481 
L 2356 481 
L 2356 0 
L 1766 0 
Q 1100 0 847 248 
Q 594 497 594 1153 
L 594 3053 
L 172 3053 
L 172 3500 
L 594 3500 
L 594 4494 
L 1172 4494 
z
" transform="scale(0.015625)"/>
      <path id="DejaVuSans-72" d="M 2631 2963 
Q 2534 3019 2420 3045 
Q 2306 3072 2169 3072 
Q 1681 3072 1420 2755 
Q 1159 2438 1159 1844 
L 1159 0 
L 581 0 
L 581 3500 
L 1159 3500 
L 1159 2956 
Q 1341 3275 1631 3429 
Q 1922 3584 2338 3584 
Q 2397 3584 2469 3576 
Q 2541 3569 2628 3553 
L 2631 2963 
z
" transform="scale(0.015625)"/>
      <path id="DejaVuSans-6f" d="M 1959 3097 
Q 1497 3097 1228 2736 
Q 959 2375 959 1747 
Q 959 1119 1226 758 
Q 1494 397 1959 397 
Q 2419 397 2687 759 
Q 2956 1122 2956 1747 
Q 2956 2369 2687 2733 
Q 2419 3097 1959 3097 
z
M 1959 3584 
Q 2709 3584 3137 3096 
Q 3566 2609 3566 1747 
Q 3566 888 3137 398 
Q 2709 -91 1959 -91 
Q 1206 -91 779 398 
Q 353 888 353 1747 
Q 353 2609 779 3096 
Q 1206 3584 1959 3584 
z
" transform="scale(0.015625)"/>
      <path id="DejaVuSans-2c" d="M 750 794 
L 1409 794 
L 1409 256 
L 897 -744 
L 494 -744 
L 750 256 
L 750 794 
z
" transform="scale(0.015625)"/>
     </defs>
     <use xlink:href="#DejaVuSans-31"/>
     <use xlink:href="#DejaVuSans-20" x="63.623047"/>
     <use xlink:href="#DejaVuSans-76" x="95.410156"/>
     <use xlink:href="#DejaVuSans-61" x="154.589844"/>
     <use xlink:href="#DejaVuSans-6c" x="215.869141"/>
     <use xlink:href="#DejaVuSans-65" x="243.652344"/>
     <use xlink:href="#DejaVuSans-6e" x="305.175781"/>
     <use xlink:href="#DejaVuSans-63" x="368.554688"/>
     <use xlink:href="#DejaVuSans-65" x="423.535156"/>
     <use xlink:href="#DejaVuSans-20" x="485.058594"/>
     <use xlink:href="#DejaVuSans-65" x="516.845703"/>
     <use xlink:href="#DejaVuSans-6c" x="578.369141"/>
     <use xlink:href="#DejaVuSans-65" x="606.152344"/>
     <use xlink:href="#DejaVuSans-63" x="667.675781"/>
     <use xlink:href="#DejaVuSans-74" x="722.65625"/>
     <use xlink:href="#DejaVuSans-72" x="761.865234"/>
     <use xlink:href="#DejaVuSans-6f" x="800.728516"/>
     <use xlink:href="#DejaVuSans-6e" x="861.910156"/>
     <use xlink:href="#DejaVuSans-2c" x="925.289062"/>
    </g>
    <!-- loosely held -->
    <g style="fill: #444444" transform="translate(188.460572 373.73434) scale(0.085 -0.085)">
     <defs>
      <path id="DejaVuSans-73" d="M 2834 3397 
L 2834 2853 
Q 2591 2978 2328 3040 
Q 2066 3103 1784 3103 
Q 1356 3103 1142 2972 
Q 928 2841 928 2578 
Q 928 2378 1081 2264 
Q 1234 2150 1697 2047 
L 1894 2003 
Q 2506 1872 2764 1633 
Q 3022 1394 3022 966 
Q 3022 478 2636 193 
Q 2250 -91 1575 -91 
Q 1294 -91 989 -36 
Q 684 19 347 128 
L 347 722 
Q 666 556 975 473 
Q 1284 391 1588 391 
Q 1994 391 2212 530 
Q 2431 669 2431 922 
Q 2431 1156 2273 1281 
Q 2116 1406 1581 1522 
L 1381 1569 
Q 847 1681 609 1914 
Q 372 2147 372 2553 
Q 372 3047 722 3315 
Q 1072 3584 1716 3584 
Q 2034 3584 2315 3537 
Q 2597 3491 2834 3397 
z
" transform="scale(0.015625)"/>
      <path id="DejaVuSans-79" d="M 2059 -325 
Q 1816 -950 1584 -1140 
Q 1353 -1331 966 -1331 
L 506 -1331 
L 506 -850 
L 844 -850 
Q 1081 -850 1212 -737 
Q 1344 -625 1503 -206 
L 1606 56 
L 191 3500 
L 800 3500 
L 1894 763 
L 2988 3500 
L 3597 3500 
L 2059 -325 
z
" transform="scale(0.015625)"/>
      <path id="DejaVuSans-68" d="M 3513 2113 
L 3513 0 
L 2938 0 
L 2938 2094 
Q 2938 2591 2744 2837 
Q 2550 3084 2163 3084 
Q 1697 3084 1428 2787 
Q 1159 2491 1159 1978 
L 1159 0 
L 581 0 
L 581 4863 
L 1159 4863 
L 1159 2956 
Q 1366 3272 1645 3428 
Q 1925 3584 2291 3584 
Q 2894 3584 3203 3211 
Q 3513 2838 3513 2113 
z
" transform="scale(0.015625)"/>
      <path id="DejaVuSans-64" d="M 2906 2969 
L 2906 4863 
L 3481 4863 
L 3481 0 
L 2906 0 
L 2906 525 
Q 2725 213 2448 61 
Q 2172 -91 1784 -91 
Q 1150 -91 751 415 
Q 353 922 353 1747 
Q 353 2572 751 3078 
Q 1150 3584 1784 3584 
Q 2172 3584 2448 3432 
Q 2725 3281 2906 2969 
z
M 947 1747 
Q 947 1113 1208 752 
Q 1469 391 1925 391 
Q 2381 391 2643 752 
Q 2906 1113 2906 1747 
Q 2906 2381 2643 2742 
Q 2381 3103 1925 3103 
Q 1469 3103 1208 2742 
Q 947 2381 947 1747 
z
" transform="scale(0.015625)"/>
     </defs>
     <use xlink:href="#DejaVuSans-6c"/>
     <use xlink:href="#DejaVuSans-6f" x="27.783203"/>
     <use xlink:href="#DejaVuSans-6f" x="88.964844"/>
     <use xlink:href="#DejaVuSans-73" x="150.146484"/>
     <use xlink:href="#DejaVuSans-65" x="202.246094"/>
     <use xlink:href="#DejaVuSans-6c" x="263.769531"/>
     <use xlink:href="#DejaVuSans-79" x="291.552734"/>
     <use xlink:href="#DejaVuSans-20" x="350.732422"/>
     <use xlink:href="#DejaVuSans-68" x="382.519531"/>
     <use xlink:href="#DejaVuSans-65" x="445.898438"/>
     <use xlink:href="#DejaVuSans-6c" x="507.421875"/>
     <use xlink:href="#DejaVuSans-64" x="535.205078"/>
    </g>
   </g>
   <g id="patch_12">
    <path d="M 578.094545 267.691985 
C 584.781135 267.691985 591.19476 265.142467 595.922893 260.604932 
C 600.651026 256.067398 603.307636 249.912316 603.307636 243.495273 
C 603.307636 237.07823 600.651026 230.923148 595.922893 226.385613 
C 591.19476 221.848078 584.781135 219.29856 578.094545 219.29856 
C 571.407956 219.29856 564.994331 221.848078 560.266198 226.385613 
C 555.538065 230.923148 552.881455 237.07823 552.881455 243.495273 
C 552.881455 249.912316 555.538065 256.067398 560.266198 260.604932 
C 564.994331 265.142467 571.407956 267.691985 578.094545 267.691985 
z
" clip-path="url(#p4701802f03)" style="fill: #34495e"/>
   </g>
   <g id="text_3">
    <!-- F atom  (2, 7) -->
    <g transform="translate(539.879702 125.872364) scale(0.1 -0.1)">
     <defs>
      <path id="DejaVuSans-Bold-46" d="M 588 4666 
L 3834 4666 
L 3834 3756 
L 1791 3756 
L 1791 2888 
L 3713 2888 
L 3713 1978 
L 1791 1978 
L 1791 0 
L 588 0 
L 588 4666 
z
" transform="scale(0.015625)"/>
      <path id="DejaVuSans-Bold-37" d="M 428 4666 
L 3944 4666 
L 3944 3988 
L 2125 0 
L 953 0 
L 2675 3781 
L 428 3781 
L 428 4666 
z
" transform="scale(0.015625)"/>
     </defs>
     <use xlink:href="#DejaVuSans-Bold-46"/>
     <use xlink:href="#DejaVuSans-Bold-20" x="68.310547"/>
     <use xlink:href="#DejaVuSans-Bold-61" x="103.125"/>
     <use xlink:href="#DejaVuSans-Bold-74" x="170.605469"/>
     <use xlink:href="#DejaVuSans-Bold-6f" x="218.408203"/>
     <use xlink:href="#DejaVuSans-Bold-6d" x="287.109375"/>
     <use xlink:href="#DejaVuSans-Bold-20" x="391.308594"/>
     <use xlink:href="#DejaVuSans-Bold-20" x="426.123047"/>
     <use xlink:href="#DejaVuSans-Bold-28" x="460.9375"/>
     <use xlink:href="#DejaVuSans-Bold-32" x="506.640625"/>
     <use xlink:href="#DejaVuSans-Bold-2c" x="576.220703"/>
     <use xlink:href="#DejaVuSans-Bold-20" x="614.208984"/>
     <use xlink:href="#DejaVuSans-Bold-37" x="649.023438"/>
     <use xlink:href="#DejaVuSans-Bold-29" x="718.603516"/>
    </g>
   </g>
   <g id="text_4">
    <!-- needs 1 more electron -->
    <g style="fill: #444444" transform="translate(530.136616 364.216199) scale(0.085 -0.085)">
     <defs>
      <path id="DejaVuSans-6d" d="M 3328 2828 
Q 3544 3216 3844 3400 
Q 4144 3584 4550 3584 
Q 5097 3584 5394 3201 
Q 5691 2819 5691 2113 
L 5691 0 
L 5113 0 
L 5113 2094 
Q 5113 2597 4934 2840 
Q 4756 3084 4391 3084 
Q 3944 3084 3684 2787 
Q 3425 2491 3425 1978 
L 3425 0 
L 2847 0 
L 2847 2094 
Q 2847 2600 2669 2842 
Q 2491 3084 2119 3084 
Q 1678 3084 1418 2786 
Q 1159 2488 1159 1978 
L 1159 0 
L 581 0 
L 581 3500 
L 1159 3500 
L 1159 2956 
Q 1356 3278 1631 3431 
Q 1906 3584 2284 3584 
Q 2666 3584 2933 3390 
Q 3200 3197 3328 2828 
z
" transform="scale(0.015625)"/>
     </defs>
     <use xlink:href="#DejaVuSans-6e"/>
     <use xlink:href="#DejaVuSans-65" x="63.378906"/>
     <use xlink:href="#DejaVuSans-65" x="124.902344"/>
     <use xlink:href="#DejaVuSans-64" x="186.425781"/>
     <use xlink:href="#DejaVuSans-73" x="249.902344"/>
     <use xlink:href="#DejaVuSans-20" x="302.001953"/>
     <use xlink:href="#DejaVuSans-31" x="333.789062"/>
     <use xlink:href="#DejaVuSans-20" x="397.412109"/>
     <use xlink:href="#DejaVuSans-6d" x="429.199219"/>
     <use xlink:href="#DejaVuSans-6f" x="526.611328"/>
     <use xlink:href="#DejaVuSans-72" x="587.792969"/>
     <use xlink:href="#DejaVuSans-65" x="626.65625"/>
     <use xlink:href="#DejaVuSans-20" x="688.179688"/>
     <use xlink:href="#DejaVuSans-65" x="719.966797"/>
     <use xlink:href="#DejaVuSans-6c" x="781.490234"/>
     <use xlink:href="#DejaVuSans-65" x="809.273438"/>
     <use xlink:href="#DejaVuSans-63" x="870.796875"/>
     <use xlink:href="#DejaVuSans-74" x="925.777344"/>
     <use xlink:href="#DejaVuSans-72" x="964.986328"/>
     <use xlink:href="#DejaVuSans-6f" x="1003.849609"/>
     <use xlink:href="#DejaVuSans-6e" x="1065.03125"/>
    </g>
    <!-- to complete its octet -->
    <g style="fill: #444444" transform="translate(533.978217 373.73434) scale(0.085 -0.085)">
     <defs>
      <path id="DejaVuSans-70" d="M 1159 525 
L 1159 -1331 
L 581 -1331 
L 581 3500 
L 1159 3500 
L 1159 2969 
Q 1341 3281 1617 3432 
Q 1894 3584 2278 3584 
Q 2916 3584 3314 3078 
Q 3713 2572 3713 1747 
Q 3713 922 3314 415 
Q 2916 -91 2278 -91 
Q 1894 -91 1617 61 
Q 1341 213 1159 525 
z
M 3116 1747 
Q 3116 2381 2855 2742 
Q 2594 3103 2138 3103 
Q 1681 3103 1420 2742 
Q 1159 2381 1159 1747 
Q 1159 1113 1420 752 
Q 1681 391 2138 391 
Q 2594 391 2855 752 
Q 3116 1113 3116 1747 
z
" transform="scale(0.015625)"/>
      <path id="DejaVuSans-69" d="M 603 3500 
L 1178 3500 
L 1178 0 
L 603 0 
L 603 3500 
z
M 603 4863 
L 1178 4863 
L 1178 4134 
L 603 4134 
L 603 4863 
z
" transform="scale(0.015625)"/>
     </defs>
     <use xlink:href="#DejaVuSans-74"/>
     <use xlink:href="#DejaVuSans-6f" x="39.208984"/>
     <use xlink:href="#DejaVuSans-20" x="100.390625"/>
     <use xlink:href="#DejaVuSans-63" x="132.177734"/>
     <use xlink:href="#DejaVuSans-6f" x="187.158203"/>
     <use xlink:href="#DejaVuSans-6d" x="248.339844"/>
     <use xlink:href="#DejaVuSans-70" x="345.751953"/>
     <use xlink:href="#DejaVuSans-6c" x="409.228516"/>
     <use xlink:href="#DejaVuSans-65" x="437.011719"/>
     <use xlink:href="#DejaVuSans-74" x="498.535156"/>
     <use xlink:href="#DejaVuSans-65" x="537.744141"/>
     <use xlink:href="#DejaVuSans-20" x="599.267578"/>
     <use xlink:href="#DejaVuSans-69" x="631.054688"/>
     <use xlink:href="#DejaVuSans-74" x="658.837891"/>
     <use xlink:href="#DejaVuSans-73" x="698.046875"/>
     <use xlink:href="#DejaVuSans-20" x="750.146484"/>
     <use xlink:href="#DejaVuSans-6f" x="781.933594"/>
     <use xlink:href="#DejaVuSans-63" x="843.115234"/>
     <use xlink:href="#DejaVuSans-74" x="898.095703"/>
     <use xlink:href="#DejaVuSans-65" x="937.304688"/>
     <use xlink:href="#DejaVuSans-74" x="998.828125"/>
    </g>
   </g>
   <g id="patch_13">
    <path d="M 309.652012 241.896036 
Q 372.445124 158.781385 471.953011 178.714847 
" style="fill: none; stroke: #c0392b; stroke-width: 2.4; stroke-linecap: round"/>
    <path d="M 468.423767 175.968134 
L 471.953011 178.714847 
L 467.638094 179.890215 
z
" style="fill: #c0392b; stroke: #c0392b; stroke-width: 2.4; stroke-linecap: round"/>
   </g>
   <g id="text_5">
    <!-- 1 electron transferred -->
    <g style="fill: #c0392b" transform="translate(330.370898 125.872364) scale(0.105 -0.105)">
     <defs>
      <path id="DejaVuSans-Bold-65" d="M 4031 1759 
L 4031 1441 
L 1416 1441 
Q 1456 1047 1700 850 
Q 1944 653 2381 653 
Q 2734 653 3104 758 
Q 3475 863 3866 1075 
L 3866 213 
Q 3469 63 3072 -14 
Q 2675 -91 2278 -91 
Q 1328 -91 801 392 
Q 275 875 275 1747 
Q 275 2603 792 3093 
Q 1309 3584 2216 3584 
Q 3041 3584 3536 3087 
Q 4031 2591 4031 1759 
z
M 2881 2131 
Q 2881 2450 2695 2645 
Q 2509 2841 2209 2841 
Q 1884 2841 1681 2658 
Q 1478 2475 1428 2131 
L 2881 2131 
z
" transform="scale(0.015625)"/>
      <path id="DejaVuSans-Bold-6c" d="M 538 4863 
L 1656 4863 
L 1656 0 
L 538 0 
L 538 4863 
z
" transform="scale(0.015625)"/>
      <path id="DejaVuSans-Bold-63" d="M 3366 3391 
L 3366 2478 
Q 3138 2634 2908 2709 
Q 2678 2784 2431 2784 
Q 1963 2784 1702 2511 
Q 1441 2238 1441 1747 
Q 1441 1256 1702 982 
Q 1963 709 2431 709 
Q 2694 709 2930 787 
Q 3166 866 3366 1019 
L 3366 103 
Q 3103 6 2833 -42 
Q 2563 -91 2291 -91 
Q 1344 -91 809 395 
Q 275 881 275 1747 
Q 275 2613 809 3098 
Q 1344 3584 2291 3584 
Q 2566 3584 2833 3536 
Q 3100 3488 3366 3391 
z
" transform="scale(0.015625)"/>
      <path id="DejaVuSans-Bold-72" d="M 3138 2547 
Q 2991 2616 2845 2648 
Q 2700 2681 2553 2681 
Q 2122 2681 1889 2404 
Q 1656 2128 1656 1613 
L 1656 0 
L 538 0 
L 538 3500 
L 1656 3500 
L 1656 2925 
Q 1872 3269 2151 3426 
Q 2431 3584 2822 3584 
Q 2878 3584 2943 3579 
Q 3009 3575 3134 3559 
L 3138 2547 
z
" transform="scale(0.015625)"/>
      <path id="DejaVuSans-Bold-6e" d="M 4056 2131 
L 4056 0 
L 2931 0 
L 2931 347 
L 2931 1631 
Q 2931 2084 2911 2256 
Q 2891 2428 2841 2509 
Q 2775 2619 2662 2680 
Q 2550 2741 2406 2741 
Q 2056 2741 1856 2470 
Q 1656 2200 1656 1722 
L 1656 0 
L 538 0 
L 538 3500 
L 1656 3500 
L 1656 2988 
Q 1909 3294 2193 3439 
Q 2478 3584 2822 3584 
Q 3428 3584 3742 3212 
Q 4056 2841 4056 2131 
z
" transform="scale(0.015625)"/>
      <path id="DejaVuSans-Bold-73" d="M 3272 3391 
L 3272 2541 
Q 2913 2691 2578 2766 
Q 2244 2841 1947 2841 
Q 1628 2841 1473 2761 
Q 1319 2681 1319 2516 
Q 1319 2381 1436 2309 
Q 1553 2238 1856 2203 
L 2053 2175 
Q 2913 2066 3209 1816 
Q 3506 1566 3506 1031 
Q 3506 472 3093 190 
Q 2681 -91 1863 -91 
Q 1516 -91 1145 -36 
Q 775 19 384 128 
L 384 978 
Q 719 816 1070 734 
Q 1422 653 1784 653 
Q 2113 653 2278 743 
Q 2444 834 2444 1013 
Q 2444 1163 2330 1236 
Q 2216 1309 1875 1350 
L 1678 1375 
Q 931 1469 631 1722 
Q 331 1975 331 2491 
Q 331 3047 712 3315 
Q 1094 3584 1881 3584 
Q 2191 3584 2531 3537 
Q 2872 3491 3272 3391 
z
" transform="scale(0.015625)"/>
      <path id="DejaVuSans-Bold-66" d="M 2841 4863 
L 2841 4128 
L 2222 4128 
Q 1984 4128 1890 4042 
Q 1797 3956 1797 3744 
L 1797 3500 
L 2753 3500 
L 2753 2700 
L 1797 2700 
L 1797 0 
L 678 0 
L 678 2700 
L 122 2700 
L 122 3500 
L 678 3500 
L 678 3744 
Q 678 4316 997 4589 
Q 1316 4863 1984 4863 
L 2841 4863 
z
" transform="scale(0.015625)"/>
      <path id="DejaVuSans-Bold-64" d="M 2919 2988 
L 2919 4863 
L 4044 4863 
L 4044 0 
L 2919 0 
L 2919 506 
Q 2688 197 2409 53 
Q 2131 -91 1766 -91 
Q 1119 -91 703 423 
Q 288 938 288 1747 
Q 288 2556 703 3070 
Q 1119 3584 1766 3584 
Q 2128 3584 2408 3439 
Q 2688 3294 2919 2988 
z
M 2181 722 
Q 2541 722 2730 984 
Q 2919 1247 2919 1747 
Q 2919 2247 2730 2509 
Q 2541 2772 2181 2772 
Q 1825 2772 1636 2509 
Q 1447 2247 1447 1747 
Q 1447 1247 1636 984 
Q 1825 722 2181 722 
z
" transform="scale(0.015625)"/>
     </defs>
     <use xlink:href="#DejaVuSans-Bold-31"/>
     <use xlink:href="#DejaVuSans-Bold-20" x="69.580078"/>
     <use xlink:href="#DejaVuSans-Bold-65" x="104.394531"/>
     <use xlink:href="#DejaVuSans-Bold-6c" x="172.216797"/>
     <use xlink:href="#DejaVuSans-Bold-65" x="206.494141"/>
     <use xlink:href="#DejaVuSans-Bold-63" x="274.316406"/>
     <use xlink:href="#DejaVuSans-Bold-74" x="333.59375"/>
     <use xlink:href="#DejaVuSans-Bold-72" x="381.396484"/>
     <use xlink:href="#DejaVuSans-Bold-6f" x="430.712891"/>
     <use xlink:href="#DejaVuSans-Bold-6e" x="499.414062"/>
     <use xlink:href="#DejaVuSans-Bold-20" x="570.605469"/>
     <use xlink:href="#DejaVuSans-Bold-74" x="605.419922"/>
     <use xlink:href="#DejaVuSans-Bold-72" x="653.222656"/>
     <use xlink:href="#DejaVuSans-Bold-61" x="702.539062"/>
     <use xlink:href="#DejaVuSans-Bold-6e" x="770.019531"/>
     <use xlink:href="#DejaVuSans-Bold-73" x="841.210938"/>
     <use xlink:href="#DejaVuSans-Bold-66" x="900.732422"/>
     <use xlink:href="#DejaVuSans-Bold-65" x="944.238281"/>
     <use xlink:href="#DejaVuSans-Bold-72" x="1012.060547"/>
     <use xlink:href="#DejaVuSans-Bold-72" x="1061.376953"/>
     <use xlink:href="#DejaVuSans-Bold-65" x="1110.693359"/>
     <use xlink:href="#DejaVuSans-Bold-64" x="1178.515625"/>
    </g>
   </g>
   <g id="patch_14">
    <path d="M 213.905455 400.08836 
Q 213.905455 448.497003 213.905455 495.228595 
" style="fill: none; stroke: #666666; stroke-width: 1.5; stroke-linecap: round"/>
    <path d="M 215.905455 491.228595 
L 213.905455 495.228595 
L 211.905455 491.228595 
z
" style="fill: #666666; stroke: #666666; stroke-width: 1.5; stroke-linecap: round"/>
   </g>
   <g id="patch_15">
    <path d="M 578.094545 400.08836 
Q 578.094545 448.497003 578.094545 495.228595 
" style="fill: none; stroke: #666666; stroke-width: 1.5; stroke-linecap: round"/>
    <path d="M 580.094545 491.228595 
L 578.094545 495.228595 
L 576.094545 491.228595 
z
" style="fill: #666666; stroke: #666666; stroke-width: 1.5; stroke-linecap: round"/>
   </g>
   <g id="text_6">
    <g id="patch_16">
     <path d="M 175.955455 436.170335 
L 251.855455 436.170335 
Q 254.855455 436.170335 254.855455 433.170335 
L 254.855455 423.49221 
Q 254.855455 420.49221 251.855455 420.49221 
L 175.955455 420.49221 
Q 172.955455 420.49221 172.955455 423.49221 
L 172.955455 433.170335 
Q 172.955455 436.170335 175.955455 436.170335 
z
" style="fill: #f4ecf7; stroke: #8e44ad; stroke-linejoin: miter"/>
    </g>
    <!-- $\mathrm{Na \rightarrow Na^+ + e^-}$ -->
    <g transform="translate(175.955455 431.090648) scale(0.1 -0.1)">
     <defs>
      <path id="DejaVuSans-4e" d="M 628 4666 
L 1478 4666 
L 3547 763 
L 3547 4666 
L 4159 4666 
L 4159 0 
L 3309 0 
L 1241 3903 
L 1241 0 
L 628 0 
L 628 4666 
z
" transform="scale(0.015625)"/>
      <path id="DejaVuSans-2192" d="M 5050 2147 
L 5050 1866 
L 3822 638 
L 3447 1013 
L 4175 1741 
L 366 1741 
L 366 2272 
L 4175 2272 
L 3447 3000 
L 3822 3375 
L 5050 2147 
z
" transform="scale(0.015625)"/>
      <path id="DejaVuSans-2b" d="M 2944 4013 
L 2944 2272 
L 4684 2272 
L 4684 1741 
L 2944 1741 
L 2944 0 
L 2419 0 
L 2419 1741 
L 678 1741 
L 678 2272 
L 2419 2272 
L 2419 4013 
L 2944 4013 
z
" transform="scale(0.015625)"/>
      <path id="DejaVuSans-2212" d="M 678 2272 
L 4684 2272 
L 4684 1741 
L 678 1741 
L 678 2272 
z
" transform="scale(0.015625)"/>
     </defs>
     <use xlink:href="#DejaVuSans-4e" transform="translate(0 0.826562)"/>
     <use xlink:href="#DejaVuSans-61" transform="translate(74.804688 0.826562)"/>
     <use xlink:href="#DejaVuSans-2192" transform="translate(155.566406 0.826562)"/>
     <use xlink:href="#DejaVuSans-4e" transform="translate(258.837891 0.826562)"/>
     <use xlink:href="#DejaVuSans-61" transform="translate(333.642578 0.826562)"/>
     <use xlink:href="#DejaVuSans-2b" transform="translate(409.516602 39.107812) scale(0.7)"/>
     <use xlink:href="#DejaVuSans-2b" transform="translate(504.023438 0.826562)"/>
     <use xlink:href="#DejaVuSans-65" transform="translate(607.294922 0.826562)"/>
     <use xlink:href="#DejaVuSans-2212" transform="translate(683.413086 39.107812) scale(0.7)"/>
    </g>
   </g>
   <g id="text_7">
    <g id="patch_17">
     <path d="M 547.994545 436.170335 
L 608.194545 436.170335 
Q 611.194545 436.170335 611.194545 433.170335 
L 611.194545 423.49221 
Q 611.194545 420.49221 608.194545 420.49221 
L 547.994545 420.49221 
Q 544.994545 420.49221 544.994545 423.49221 
L 544.994545 433.170335 
Q 544.994545 436.170335 547.994545 436.170335 
z
" style="fill: #eafaf1; stroke: #27ae60; stroke-linejoin: miter"/>
    </g>
    <!-- $\mathrm{F + e^- \rightarrow F^-}$ -->
    <g transform="translate(547.994545 431.090648) scale(0.1 -0.1)">
     <defs>
      <path id="DejaVuSans-46" d="M 628 4666 
L 3309 4666 
L 3309 4134 
L 1259 4134 
L 1259 2759 
L 3109 2759 
L 3109 2228 
L 1259 2228 
L 1259 0 
L 628 0 
L 628 4666 
z
" transform="scale(0.015625)"/>
     </defs>
     <use xlink:href="#DejaVuSans-46" transform="translate(0 0.09375)"/>
     <use xlink:href="#DejaVuSans-2b" transform="translate(77.001953 0.09375)"/>
     <use xlink:href="#DejaVuSans-65" transform="translate(180.273438 0.09375)"/>
     <use xlink:href="#DejaVuSans-2212" transform="translate(256.391602 38.375) scale(0.7)"/>
     <use xlink:href="#DejaVuSans-2192" transform="translate(350.898438 0.09375)"/>
     <use xlink:href="#DejaVuSans-46" transform="translate(454.169922 0.09375)"/>
     <use xlink:href="#DejaVuSans-2212" transform="translate(526.28418 38.375) scale(0.7)"/>
    </g>
   </g>
   <g id="patch_18">
    <path d="M 213.905455 630.642676 
C 220.592044 630.642676 227.005669 628.093158 231.733802 623.555623 
C 236.461935 619.018089 239.118545 612.863007 239.118545 606.445964 
C 239.118545 600.02892 236.461935 593.873839 231.733802 589.336304 
C 227.005669 584.798769 220.592044 582.249251 213.905455 582.249251 
C 207.218865 582.249251 200.80524 584.798769 196.077107 589.336304 
C 191.348974 593.873839 188.692364 600.02892 188.692364 606.445964 
C 188.692364 612.863007 191.348974 619.018089 196.077107 623.555623 
C 200.80524 628.093158 207.218865 630.642676 213.905455 630.642676 
z
" clip-path="url(#p4701802f03)" style="fill: #8e44ad"/>
   </g>
   <g id="text_8">
    <!-- $\mathrm{Na^+}$  (2, 8) -->
    <g transform="translate(183.955455 724.068873) scale(0.1 -0.1)">
     <use xlink:href="#DejaVuSans-4e" transform="translate(0 0.826562)"/>
     <use xlink:href="#DejaVuSans-61" transform="translate(74.804688 0.826562)"/>
     <use xlink:href="#DejaVuSans-2b" transform="translate(150.678711 39.107812) scale(0.7)"/>
     <use xlink:href="#DejaVuSans-Bold-20" transform="translate(225.703125 0.826562)"/>
     <use xlink:href="#DejaVuSans-Bold-20" transform="translate(260.517578 0.826562)"/>
     <use xlink:href="#DejaVuSans-Bold-28" transform="translate(295.332031 0.826562)"/>
     <use xlink:href="#DejaVuSans-Bold-32" transform="translate(341.035156 0.826562)"/>
     <use xlink:href="#DejaVuSans-Bold-2c" transform="translate(410.615234 0.826562)"/>
     <use xlink:href="#DejaVuSans-Bold-20" transform="translate(448.603516 0.826562)"/>
     <use xlink:href="#DejaVuSans-Bold-38" transform="translate(483.417969 0.826562)"/>
     <use xlink:href="#DejaVuSans-Bold-29" transform="translate(552.998047 0.826562)"/>
    </g>
   </g>
   <g id="text_9">
    <!-- OXIDIZED — lost 1 e$^-$ -->
    <g style="fill: #8e44ad" transform="translate(159.005455 753.087786) scale(0.09 -0.09)">
     <defs>
      <path id="DejaVuSans-Bold-4f" d="M 2719 3878 
Q 2169 3878 1866 3472 
Q 1563 3066 1563 2328 
Q 1563 1594 1866 1187 
Q 2169 781 2719 781 
Q 3272 781 3575 1187 
Q 3878 1594 3878 2328 
Q 3878 3066 3575 3472 
Q 3272 3878 2719 3878 
z
M 2719 4750 
Q 3844 4750 4481 4106 
Q 5119 3463 5119 2328 
Q 5119 1197 4481 553 
Q 3844 -91 2719 -91 
Q 1597 -91 958 553 
Q 319 1197 319 2328 
Q 319 3463 958 4106 
Q 1597 4750 2719 4750 
z
" transform="scale(0.015625)"/>
      <path id="DejaVuSans-Bold-58" d="M 3188 2381 
L 4806 0 
L 3553 0 
L 2463 1594 
L 1381 0 
L 122 0 
L 1741 2381 
L 184 4666 
L 1441 4666 
L 2463 3163 
L 3481 4666 
L 4744 4666 
L 3188 2381 
z
" transform="scale(0.015625)"/>
      <path id="DejaVuSans-Bold-49" d="M 588 4666 
L 1791 4666 
L 1791 0 
L 588 0 
L 588 4666 
z
" transform="scale(0.015625)"/>
      <path id="DejaVuSans-Bold-44" d="M 1791 3756 
L 1791 909 
L 2222 909 
Q 2959 909 3348 1275 
Q 3738 1641 3738 2338 
Q 3738 3031 3350 3393 
Q 2963 3756 2222 3756 
L 1791 3756 
z
M 588 4666 
L 1856 4666 
Q 2919 4666 3439 4514 
Q 3959 4363 4331 4000 
Q 4659 3684 4818 3271 
Q 4978 2859 4978 2338 
Q 4978 1809 4818 1395 
Q 4659 981 4331 666 
Q 3956 303 3431 151 
Q 2906 0 1856 0 
L 588 0 
L 588 4666 
z
" transform="scale(0.015625)"/>
      <path id="DejaVuSans-Bold-5a" d="M 359 4666 
L 4281 4666 
L 4281 3938 
L 1778 909 
L 4353 909 
L 4353 0 
L 288 0 
L 288 728 
L 2791 3756 
L 359 3756 
L 359 4666 
z
" transform="scale(0.015625)"/>
      <path id="DejaVuSans-Bold-45" d="M 588 4666 
L 3834 4666 
L 3834 3756 
L 1791 3756 
L 1791 2888 
L 3713 2888 
L 3713 1978 
L 1791 1978 
L 1791 909 
L 3903 909 
L 3903 0 
L 588 0 
L 588 4666 
z
" transform="scale(0.015625)"/>
      <path id="DejaVuSansDisplay-2014" d="M 313 1978 
L 6088 1978 
L 6088 1528 
L 313 1528 
L 313 1978 
z
" transform="scale(0.015625)"/>
     </defs>
     <use xlink:href="#DejaVuSans-Bold-4f" transform="translate(0 0.015625)"/>
     <use xlink:href="#DejaVuSans-Bold-58" transform="translate(85.009766 0.015625)"/>
     <use xlink:href="#DejaVuSans-Bold-49" transform="translate(162.109375 0.015625)"/>
     <use xlink:href="#DejaVuSans-Bold-44" transform="translate(199.316406 0.015625)"/>
     <use xlink:href="#DejaVuSans-Bold-49" transform="translate(282.324219 0.015625)"/>
     <use xlink:href="#DejaVuSans-Bold-5a" transform="translate(319.53125 0.015625)"/>
     <use xlink:href="#DejaVuSans-Bold-45" transform="translate(392.041016 0.015625)"/>
     <use xlink:href="#DejaVuSans-Bold-44" transform="translate(460.351562 0.015625)"/>
     <use xlink:href="#DejaVuSans-Bold-20" transform="translate(543.359375 0.015625)"/>
     <use xlink:href="#DejaVuSansDisplay-2014" transform="translate(578.173828 0.015625)"/>
     <use xlink:href="#DejaVuSans-Bold-20" transform="translate(678.173828 0.015625)"/>
     <use xlink:href="#DejaVuSans-Bold-6c" transform="translate(712.988281 0.015625)"/>
     <use xlink:href="#DejaVuSans-Bold-6f" transform="translate(747.265625 0.015625)"/>
     <use xlink:href="#DejaVuSans-Bold-73" transform="translate(815.966797 0.015625)"/>
     <use xlink:href="#DejaVuSans-Bold-74" transform="translate(875.488281 0.015625)"/>
     <use xlink:href="#DejaVuSans-Bold-20" transform="translate(923.291016 0.015625)"/>
     <use xlink:href="#DejaVuSans-Bold-31" transform="translate(958.105469 0.015625)"/>
     <use xlink:href="#DejaVuSans-Bold-20" transform="translate(1027.685547 0.015625)"/>
     <use xlink:href="#DejaVuSans-Bold-65" transform="translate(1062.5 0.015625)"/>
     <use xlink:href="#DejaVuSans-2212" transform="translate(1144.916992 38.296875) scale(0.7)"/>
    </g>
    <!-- now has a neon octet -->
    <g style="fill: #8e44ad" transform="translate(159.567251 763.165818) scale(0.09 -0.09)">
     <defs>
      <path id="DejaVuSans-Bold-77" d="M 225 3500 
L 1313 3500 
L 1900 1088 
L 2491 3500 
L 3425 3500 
L 4013 1113 
L 4603 3500 
L 5691 3500 
L 4769 0 
L 3547 0 
L 2956 2406 
L 2369 0 
L 1147 0 
L 225 3500 
z
" transform="scale(0.015625)"/>
      <path id="DejaVuSans-Bold-68" d="M 4056 2131 
L 4056 0 
L 2931 0 
L 2931 347 
L 2931 1625 
Q 2931 2084 2911 2256 
Q 2891 2428 2841 2509 
Q 2775 2619 2662 2680 
Q 2550 2741 2406 2741 
Q 2056 2741 1856 2470 
Q 1656 2200 1656 1722 
L 1656 0 
L 538 0 
L 538 4863 
L 1656 4863 
L 1656 2988 
Q 1909 3294 2193 3439 
Q 2478 3584 2822 3584 
Q 3428 3584 3742 3212 
Q 4056 2841 4056 2131 
z
" transform="scale(0.015625)"/>
     </defs>
     <use xlink:href="#DejaVuSans-Bold-6e"/>
     <use xlink:href="#DejaVuSans-Bold-6f" x="71.191406"/>
     <use xlink:href="#DejaVuSans-Bold-77" x="139.892578"/>
     <use xlink:href="#DejaVuSans-Bold-20" x="232.275391"/>
     <use xlink:href="#DejaVuSans-Bold-68" x="267.089844"/>
     <use xlink:href="#DejaVuSans-Bold-61" x="338.28125"/>
     <use xlink:href="#DejaVuSans-Bold-73" x="405.761719"/>
     <use xlink:href="#DejaVuSans-Bold-20" x="465.283203"/>
     <use xlink:href="#DejaVuSans-Bold-61" x="500.097656"/>
     <use xlink:href="#DejaVuSans-Bold-20" x="567.578125"/>
     <use xlink:href="#DejaVuSans-Bold-6e" x="602.392578"/>
     <use xlink:href="#DejaVuSans-Bold-65" x="673.583984"/>
     <use xlink:href="#DejaVuSans-Bold-6f" x="741.40625"/>
     <use xlink:href="#DejaVuSans-Bold-6e" x="810.107422"/>
     <use xlink:href="#DejaVuSans-Bold-20" x="881.298828"/>
     <use xlink:href="#DejaVuSans-Bold-6f" x="916.113281"/>
     <use xlink:href="#DejaVuSans-Bold-63" x="984.814453"/>
     <use xlink:href="#DejaVuSans-Bold-74" x="1044.091797"/>
     <use xlink:href="#DejaVuSans-Bold-65" x="1091.894531"/>
     <use xlink:href="#DejaVuSans-Bold-74" x="1159.716797"/>
    </g>
   </g>
   <g id="patch_19">
    <path d="M 578.094545 630.642676 
C 584.781135 630.642676 591.19476 628.093158 595.922893 623.555623 
C 600.651026 619.018089 603.307636 612.863007 603.307636 606.445964 
C 603.307636 600.02892 600.651026 593.873839 595.922893 589.336304 
C 591.19476 584.798769 584.781135 582.249251 578.094545 582.249251 
C 571.407956 582.249251 564.994331 584.798769 560.266198 589.336304 
C 555.538065 593.873839 552.881455 600.02892 552.881455 606.445964 
C 552.881455 612.863007 555.538065 619.018089 560.266198 623.555623 
C 564.994331 628.093158 571.407956 630.642676 578.094545 630.642676 
z
" clip-path="url(#p4701802f03)" style="fill: #27ae60"/>
   </g>
   <g id="text_10">
    <!-- $\mathrm{F^-}$  (2, 8) -->
    <g transform="translate(552.044545 724.068873) scale(0.1 -0.1)">
     <use xlink:href="#DejaVuSans-46" transform="translate(0 0.125)"/>
     <use xlink:href="#DejaVuSans-2212" transform="translate(72.114258 38.40625) scale(0.7)"/>
     <use xlink:href="#DejaVuSans-Bold-20" transform="translate(147.138672 0.125)"/>
     <use xlink:href="#DejaVuSans-Bold-20" transform="translate(181.953125 0.125)"/>
     <use xlink:href="#DejaVuSans-Bold-28" transform="translate(216.767578 0.125)"/>
     <use xlink:href="#DejaVuSans-Bold-32" transform="translate(262.470703 0.125)"/>
     <use xlink:href="#DejaVuSans-Bold-2c" transform="translate(332.050781 0.125)"/>
     <use xlink:href="#DejaVuSans-Bold-20" transform="translate(370.039062 0.125)"/>
     <use xlink:href="#DejaVuSans-Bold-38" transform="translate(404.853516 0.125)"/>
     <use xlink:href="#DejaVuSans-Bold-29" transform="translate(474.433594 0.125)"/>
    </g>
   </g>
   <g id="text_11">
    <!-- REDUCED — gained 1 e$^-$ -->
    <g style="fill: #27ae60" transform="translate(515.769545 753.089193) scale(0.09 -0.09)">
     <defs>
      <path id="DejaVuSans-Bold-52" d="M 2297 2597 
Q 2675 2597 2839 2737 
Q 3003 2878 3003 3200 
Q 3003 3519 2839 3656 
Q 2675 3794 2297 3794 
L 1791 3794 
L 1791 2597 
L 2297 2597 
z
M 1791 1766 
L 1791 0 
L 588 0 
L 588 4666 
L 2425 4666 
Q 3347 4666 3776 4356 
Q 4206 4047 4206 3378 
Q 4206 2916 3982 2619 
Q 3759 2322 3309 2181 
Q 3556 2125 3751 1926 
Q 3947 1728 4147 1325 
L 4800 0 
L 3519 0 
L 2950 1159 
Q 2778 1509 2601 1637 
Q 2425 1766 2131 1766 
L 1791 1766 
z
" transform="scale(0.015625)"/>
      <path id="DejaVuSans-Bold-55" d="M 588 4666 
L 1791 4666 
L 1791 1869 
Q 1791 1291 1980 1042 
Q 2169 794 2597 794 
Q 3028 794 3217 1042 
Q 3406 1291 3406 1869 
L 3406 4666 
L 4609 4666 
L 4609 1869 
Q 4609 878 4112 393 
Q 3616 -91 2597 -91 
Q 1581 -91 1084 393 
Q 588 878 588 1869 
L 588 4666 
z
" transform="scale(0.015625)"/>
      <path id="DejaVuSans-Bold-43" d="M 4288 256 
Q 3956 84 3597 -3 
Q 3238 -91 2847 -91 
Q 1681 -91 1000 561 
Q 319 1213 319 2328 
Q 319 3447 1000 4098 
Q 1681 4750 2847 4750 
Q 3238 4750 3597 4662 
Q 3956 4575 4288 4403 
L 4288 3438 
Q 3953 3666 3628 3772 
Q 3303 3878 2944 3878 
Q 2300 3878 1931 3465 
Q 1563 3053 1563 2328 
Q 1563 1606 1931 1193 
Q 2300 781 2944 781 
Q 3303 781 3628 887 
Q 3953 994 4288 1222 
L 4288 256 
z
" transform="scale(0.015625)"/>
      <path id="DejaVuSans-Bold-67" d="M 2919 594 
Q 2688 288 2409 144 
Q 2131 0 1766 0 
Q 1125 0 706 504 
Q 288 1009 288 1791 
Q 288 2575 706 3076 
Q 1125 3578 1766 3578 
Q 2131 3578 2409 3434 
Q 2688 3291 2919 2981 
L 2919 3500 
L 4044 3500 
L 4044 353 
Q 4044 -491 3511 -936 
Q 2978 -1381 1966 -1381 
Q 1638 -1381 1331 -1331 
Q 1025 -1281 716 -1178 
L 716 -306 
Q 1009 -475 1290 -558 
Q 1572 -641 1856 -641 
Q 2406 -641 2662 -400 
Q 2919 -159 2919 353 
L 2919 594 
z
M 2181 2772 
Q 1834 2772 1640 2515 
Q 1447 2259 1447 1791 
Q 1447 1309 1634 1061 
Q 1822 813 2181 813 
Q 2531 813 2725 1069 
Q 2919 1325 2919 1791 
Q 2919 2259 2725 2515 
Q 2531 2772 2181 2772 
z
" transform="scale(0.015625)"/>
      <path id="DejaVuSans-Bold-69" d="M 538 3500 
L 1656 3500 
L 1656 0 
L 538 0 
L 538 3500 
z
M 538 4863 
L 1656 4863 
L 1656 3950 
L 538 3950 
L 538 4863 
z
" transform="scale(0.015625)"/>
     </defs>
     <use xlink:href="#DejaVuSans-Bold-52" transform="translate(0 0.015625)"/>
     <use xlink:href="#DejaVuSans-Bold-45" transform="translate(77.001953 0.015625)"/>
     <use xlink:href="#DejaVuSans-Bold-44" transform="translate(145.3125 0.015625)"/>
     <use xlink:href="#DejaVuSans-Bold-55" transform="translate(228.320312 0.015625)"/>
     <use xlink:href="#DejaVuSans-Bold-43" transform="translate(309.521484 0.015625)"/>
     <use xlink:href="#DejaVuSans-Bold-45" transform="translate(382.910156 0.015625)"/>
     <use xlink:href="#DejaVuSans-Bold-44" transform="translate(451.220703 0.015625)"/>
     <use xlink:href="#DejaVuSans-Bold-20" transform="translate(534.228516 0.015625)"/>
     <use xlink:href="#DejaVuSansDisplay-2014" transform="translate(569.042969 0.015625)"/>
     <use xlink:href="#DejaVuSans-Bold-20" transform="translate(669.042969 0.015625)"/>
     <use xlink:href="#DejaVuSans-Bold-67" transform="translate(703.857422 0.015625)"/>
     <use xlink:href="#DejaVuSans-Bold-61" transform="translate(775.439453 0.015625)"/>
     <use xlink:href="#DejaVuSans-Bold-69" transform="translate(842.919922 0.015625)"/>
     <use xlink:href="#DejaVuSans-Bold-6e" transform="translate(877.197266 0.015625)"/>
     <use xlink:href="#DejaVuSans-Bold-65" transform="translate(948.388672 0.015625)"/>
     <use xlink:href="#DejaVuSans-Bold-64" transform="translate(1016.210938 0.015625)"/>
     <use xlink:href="#DejaVuSans-Bold-20" transform="translate(1087.792969 0.015625)"/>
     <use xlink:href="#DejaVuSans-Bold-31" transform="translate(1122.607422 0.015625)"/>
     <use xlink:href="#DejaVuSans-Bold-20" transform="translate(1192.1875 0.015625)"/>
     <use xlink:href="#DejaVuSans-Bold-65" transform="translate(1227.001953 0.015625)"/>
     <use xlink:href="#DejaVuSans-2212" transform="translate(1309.418945 38.296875) scale(0.7)"/>
    </g>
    <!-- now has a neon octet -->
    <g style="fill: #27ae60" transform="translate(523.756342 763.275505) scale(0.09 -0.09)">
     <use xlink:href="#DejaVuSans-Bold-6e"/>
     <use xlink:href="#DejaVuSans-Bold-6f" x="71.191406"/>
     <use xlink:href="#DejaVuSans-Bold-77" x="139.892578"/>
     <use xlink:href="#DejaVuSans-Bold-20" x="232.275391"/>
     <use xlink:href="#DejaVuSans-Bold-68" x="267.089844"/>
     <use xlink:href="#DejaVuSans-Bold-61" x="338.28125"/>
     <use xlink:href="#DejaVuSans-Bold-73" x="405.761719"/>
     <use xlink:href="#DejaVuSans-Bold-20" x="465.283203"/>
     <use xlink:href="#DejaVuSans-Bold-61" x="500.097656"/>
     <use xlink:href="#DejaVuSans-Bold-20" x="567.578125"/>
     <use xlink:href="#DejaVuSans-Bold-6e" x="602.392578"/>
     <use xlink:href="#DejaVuSans-Bold-65" x="673.583984"/>
     <use xlink:href="#DejaVuSans-Bold-6f" x="741.40625"/>
     <use xlink:href="#DejaVuSans-Bold-6e" x="810.107422"/>
     <use xlink:href="#DejaVuSans-Bold-20" x="881.298828"/>
     <use xlink:href="#DejaVuSans-Bold-6f" x="916.113281"/>
     <use xlink:href="#DejaVuSans-Bold-63" x="984.814453"/>
     <use xlink:href="#DejaVuSans-Bold-74" x="1044.091797"/>
     <use xlink:href="#DejaVuSans-Bold-65" x="1091.894531"/>
     <use xlink:href="#DejaVuSans-Bold-74" x="1159.716797"/>
    </g>
   </g>
   <g id="text_12">
    <!-- Oxidation and reduction are one electron transfer, counted twice -->
    <g transform="translate(192.65625 21.858734) scale(0.125 -0.125)">
     <defs>
      <path id="DejaVuSans-4f" d="M 2522 4238 
Q 1834 4238 1429 3725 
Q 1025 3213 1025 2328 
Q 1025 1447 1429 934 
Q 1834 422 2522 422 
Q 3209 422 3611 934 
Q 4013 1447 4013 2328 
Q 4013 3213 3611 3725 
Q 3209 4238 2522 4238 
z
M 2522 4750 
Q 3503 4750 4090 4092 
Q 4678 3434 4678 2328 
Q 4678 1225 4090 567 
Q 3503 -91 2522 -91 
Q 1538 -91 948 565 
Q 359 1222 359 2328 
Q 359 3434 948 4092 
Q 1538 4750 2522 4750 
z
" transform="scale(0.015625)"/>
      <path id="DejaVuSans-78" d="M 3513 3500 
L 2247 1797 
L 3578 0 
L 2900 0 
L 1881 1375 
L 863 0 
L 184 0 
L 1544 1831 
L 300 3500 
L 978 3500 
L 1906 2253 
L 2834 3500 
L 3513 3500 
z
" transform="scale(0.015625)"/>
      <path id="DejaVuSans-75" d="M 544 1381 
L 544 3500 
L 1119 3500 
L 1119 1403 
Q 1119 906 1312 657 
Q 1506 409 1894 409 
Q 2359 409 2629 706 
Q 2900 1003 2900 1516 
L 2900 3500 
L 3475 3500 
L 3475 0 
L 2900 0 
L 2900 538 
Q 2691 219 2414 64 
Q 2138 -91 1772 -91 
Q 1169 -91 856 284 
Q 544 659 544 1381 
z
M 1991 3584 
L 1991 3584 
z
" transform="scale(0.015625)"/>
      <path id="DejaVuSans-66" d="M 2375 4863 
L 2375 4384 
L 1825 4384 
Q 1516 4384 1395 4259 
Q 1275 4134 1275 3809 
L 1275 3500 
L 2222 3500 
L 2222 3053 
L 1275 3053 
L 1275 0 
L 697 0 
L 697 3053 
L 147 3053 
L 147 3500 
L 697 3500 
L 697 3744 
Q 697 4328 969 4595 
Q 1241 4863 1831 4863 
L 2375 4863 
z
" transform="scale(0.015625)"/>
      <path id="DejaVuSans-77" d="M 269 3500 
L 844 3500 
L 1563 769 
L 2278 3500 
L 2956 3500 
L 3675 769 
L 4391 3500 
L 4966 3500 
L 4050 0 
L 3372 0 
L 2619 2869 
L 1863 0 
L 1184 0 
L 269 3500 
z
" transform="scale(0.015625)"/>
     </defs>
     <use xlink:href="#DejaVuSans-4f"/>
     <use xlink:href="#DejaVuSans-78" x="78.710938"/>
     <use xlink:href="#DejaVuSans-69" x="137.890625"/>
     <use xlink:href="#DejaVuSans-64" x="165.673828"/>
     <use xlink:href="#DejaVuSans-61" x="229.150391"/>
     <use xlink:href="#DejaVuSans-74" x="290.429688"/>
     <use xlink:href="#DejaVuSans-69" x="329.638672"/>
     <use xlink:href="#DejaVuSans-6f" x="357.421875"/>
     <use xlink:href="#DejaVuSans-6e" x="418.603516"/>
     <use xlink:href="#DejaVuSans-20" x="481.982422"/>
     <use xlink:href="#DejaVuSans-61" x="513.769531"/>
     <use xlink:href="#DejaVuSans-6e" x="575.048828"/>
     <use xlink:href="#DejaVuSans-64" x="638.427734"/>
     <use xlink:href="#DejaVuSans-20" x="701.904297"/>
     <use xlink:href="#DejaVuSans-72" x="733.691406"/>
     <use xlink:href="#DejaVuSans-65" x="772.554688"/>
     <use xlink:href="#DejaVuSans-64" x="834.078125"/>
     <use xlink:href="#DejaVuSans-75" x="897.554688"/>
     <use xlink:href="#DejaVuSans-63" x="960.933594"/>
     <use xlink:href="#DejaVuSans-74" x="1015.914062"/>
     <use xlink:href="#DejaVuSans-69" x="1055.123047"/>
     <use xlink:href="#DejaVuSans-6f" x="1082.90625"/>
     <use xlink:href="#DejaVuSans-6e" x="1144.087891"/>
     <use xlink:href="#DejaVuSans-20" x="1207.466797"/>
     <use xlink:href="#DejaVuSans-61" x="1239.253906"/>
     <use xlink:href="#DejaVuSans-72" x="1300.533203"/>
     <use xlink:href="#DejaVuSans-65" x="1339.396484"/>
     <use xlink:href="#DejaVuSans-20" x="1400.919922"/>
     <use xlink:href="#DejaVuSans-6f" x="1432.707031"/>
     <use xlink:href="#DejaVuSans-6e" x="1493.888672"/>
     <use xlink:href="#DejaVuSans-65" x="1557.267578"/>
     <use xlink:href="#DejaVuSans-20" x="1618.791016"/>
     <use xlink:href="#DejaVuSans-65" x="1650.578125"/>
     <use xlink:href="#DejaVuSans-6c" x="1712.101562"/>
     <use xlink:href="#DejaVuSans-65" x="1739.884766"/>
     <use xlink:href="#DejaVuSans-63" x="1801.408203"/>
     <use xlink:href="#DejaVuSans-74" x="1856.388672"/>
     <use xlink:href="#DejaVuSans-72" x="1895.597656"/>
     <use xlink:href="#DejaVuSans-6f" x="1934.460938"/>
     <use xlink:href="#DejaVuSans-6e" x="1995.642578"/>
     <use xlink:href="#DejaVuSans-20" x="2059.021484"/>
     <use xlink:href="#DejaVuSans-74" x="2090.808594"/>
     <use xlink:href="#DejaVuSans-72" x="2130.017578"/>
     <use xlink:href="#DejaVuSans-61" x="2171.130859"/>
     <use xlink:href="#DejaVuSans-6e" x="2232.410156"/>
     <use xlink:href="#DejaVuSans-73" x="2295.789062"/>
     <use xlink:href="#DejaVuSans-66" x="2347.888672"/>
     <use xlink:href="#DejaVuSans-65" x="2383.09375"/>
     <use xlink:href="#DejaVuSans-72" x="2444.617188"/>
     <use xlink:href="#DejaVuSans-2c" x="2485.730469"/>
     <use xlink:href="#DejaVuSans-20" x="2517.517578"/>
     <use xlink:href="#DejaVuSans-63" x="2549.304688"/>
     <use xlink:href="#DejaVuSans-6f" x="2604.285156"/>
     <use xlink:href="#DejaVuSans-75" x="2665.466797"/>
     <use xlink:href="#DejaVuSans-6e" x="2728.845703"/>
     <use xlink:href="#DejaVuSans-74" x="2792.224609"/>
     <use xlink:href="#DejaVuSans-65" x="2831.433594"/>
     <use xlink:href="#DejaVuSans-64" x="2892.957031"/>
     <use xlink:href="#DejaVuSans-20" x="2956.433594"/>
     <use xlink:href="#DejaVuSans-74" x="2988.220703"/>
     <use xlink:href="#DejaVuSans-77" x="3027.429688"/>
     <use xlink:href="#DejaVuSans-69" x="3109.216797"/>
     <use xlink:href="#DejaVuSans-63" x="3137"/>
     <use xlink:href="#DejaVuSans-65" x="3191.980469"/>
    </g>
    <!-- the electron Na loses is exactly the electron F gains -->
    <g transform="translate(234.203125 35.856) scale(0.125 -0.125)">
     <defs>
      <path id="DejaVuSans-67" d="M 2906 1791 
Q 2906 2416 2648 2759 
Q 2391 3103 1925 3103 
Q 1463 3103 1205 2759 
Q 947 2416 947 1791 
Q 947 1169 1205 825 
Q 1463 481 1925 481 
Q 2391 481 2648 825 
Q 2906 1169 2906 1791 
z
M 3481 434 
Q 3481 -459 3084 -895 
Q 2688 -1331 1869 -1331 
Q 1566 -1331 1297 -1286 
Q 1028 -1241 775 -1147 
L 775 -588 
Q 1028 -725 1275 -790 
Q 1522 -856 1778 -856 
Q 2344 -856 2625 -561 
Q 2906 -266 2906 331 
L 2906 616 
Q 2728 306 2450 153 
Q 2172 0 1784 0 
Q 1141 0 747 490 
Q 353 981 353 1791 
Q 353 2603 747 3093 
Q 1141 3584 1784 3584 
Q 2172 3584 2450 3431 
Q 2728 3278 2906 2969 
L 2906 3500 
L 3481 3500 
L 3481 434 
z
" transform="scale(0.015625)"/>
     </defs>
     <use xlink:href="#DejaVuSans-74"/>
     <use xlink:href="#DejaVuSans-68" x="39.208984"/>
     <use xlink:href="#DejaVuSans-65" x="102.587891"/>
     <use xlink:href="#DejaVuSans-20" x="164.111328"/>
     <use xlink:href="#DejaVuSans-65" x="195.898438"/>
     <use xlink:href="#DejaVuSans-6c" x="257.421875"/>
     <use xlink:href="#DejaVuSans-65" x="285.205078"/>
     <use xlink:href="#DejaVuSans-63" x="346.728516"/>
     <use xlink:href="#DejaVuSans-74" x="401.708984"/>
     <use xlink:href="#DejaVuSans-72" x="440.917969"/>
     <use xlink:href="#DejaVuSans-6f" x="479.78125"/>
     <use xlink:href="#DejaVuSans-6e" x="540.962891"/>
     <use xlink:href="#DejaVuSans-20" x="604.341797"/>
     <use xlink:href="#DejaVuSans-4e" x="636.128906"/>
     <use xlink:href="#DejaVuSans-61" x="710.933594"/>
     <use xlink:href="#DejaVuSans-20" x="772.212891"/>
     <use xlink:href="#DejaVuSans-6c" x="804"/>
     <use xlink:href="#DejaVuSans-6f" x="831.783203"/>
     <use xlink:href="#DejaVuSans-73" x="892.964844"/>
     <use xlink:href="#DejaVuSans-65" x="945.064453"/>
     <use xlink:href="#DejaVuSans-73" x="1006.587891"/>
     <use xlink:href="#DejaVuSans-20" x="1058.6875"/>
     <use xlink:href="#DejaVuSans-69" x="1090.474609"/>
     <use xlink:href="#DejaVuSans-73" x="1118.257812"/>
     <use xlink:href="#DejaVuSans-20" x="1170.357422"/>
     <use xlink:href="#DejaVuSans-65" x="1202.144531"/>
     <use xlink:href="#DejaVuSans-78" x="1261.917969"/>
     <use xlink:href="#DejaVuSans-61" x="1321.097656"/>
     <use xlink:href="#DejaVuSans-63" x="1382.376953"/>
     <use xlink:href="#DejaVuSans-74" x="1437.357422"/>
     <use xlink:href="#DejaVuSans-6c" x="1476.566406"/>
     <use xlink:href="#DejaVuSans-79" x="1504.349609"/>
     <use xlink:href="#DejaVuSans-20" x="1563.529297"/>
     <use xlink:href="#DejaVuSans-74" x="1595.316406"/>
     <use xlink:href="#DejaVuSans-68" x="1634.525391"/>
     <use xlink:href="#DejaVuSans-65" x="1697.904297"/>
     <use xlink:href="#DejaVuSans-20" x="1759.427734"/>
     <use xlink:href="#DejaVuSans-65" x="1791.214844"/>
     <use xlink:href="#DejaVuSans-6c" x="1852.738281"/>
     <use xlink:href="#DejaVuSans-65" x="1880.521484"/>
     <use xlink:href="#DejaVuSans-63" x="1942.044922"/>
     <use xlink:href="#DejaVuSans-74" x="1997.025391"/>
     <use xlink:href="#DejaVuSans-72" x="2036.234375"/>
     <use xlink:href="#DejaVuSans-6f" x="2075.097656"/>
     <use xlink:href="#DejaVuSans-6e" x="2136.279297"/>
     <use xlink:href="#DejaVuSans-20" x="2199.658203"/>
     <use xlink:href="#DejaVuSans-46" x="2231.445312"/>
     <use xlink:href="#DejaVuSans-20" x="2288.964844"/>
     <use xlink:href="#DejaVuSans-67" x="2320.751953"/>
     <use xlink:href="#DejaVuSans-61" x="2384.228516"/>
     <use xlink:href="#DejaVuSans-69" x="2445.507812"/>
     <use xlink:href="#DejaVuSans-6e" x="2473.291016"/>
     <use xlink:href="#DejaVuSans-73" x="2536.669922"/>
    </g>
   </g>
   <g id="text_13">
    <!-- Na -->
    <g style="fill: #ffffff" transform="translate(205.591001 246.530585) scale(0.11 -0.11)">
     <use xlink:href="#DejaVuSans-Bold-4e"/>
     <use xlink:href="#DejaVuSans-Bold-61" x="83.691406"/>
    </g>
   </g>
   <g id="text_14">
    <!-- F -->
    <g style="fill: #ffffff" transform="translate(574.337358 246.530585) scale(0.11 -0.11)">
     <use xlink:href="#DejaVuSans-Bold-46"/>
    </g>
   </g>
   <g id="text_15">
    <!-- Na$^{+}$ -->
    <g style="fill: #ffffff" transform="translate(202.135455 609.481276) scale(0.11 -0.11)">
     <use xlink:href="#DejaVuSans-Bold-4e" transform="translate(0 0.826562)"/>
     <use xlink:href="#DejaVuSans-Bold-61" transform="translate(83.691406 0.826562)"/>
     <use xlink:href="#DejaVuSans-2b" transform="translate(152.128906 39.107812) scale(0.7)"/>
    </g>
   </g>
   <g id="text_16">
    <!-- F$^{-}$ -->
    <g style="fill: #ffffff" transform="translate(570.889545 609.481276) scale(0.11 -0.11)">
     <use xlink:href="#DejaVuSans-Bold-46" transform="translate(0 0.09375)"/>
     <use xlink:href="#DejaVuSans-2212" transform="translate(69.267578 38.375) scale(0.7)"/>
    </g>
   </g>
   <g id="patch_20">
    <path d="M 252.425455 249.410025 
C 254.059954 249.410025 255.627729 248.786809 256.783495 247.677634 
C 257.939261 246.568459 258.588655 245.063883 258.588655 243.495273 
C 258.588655 241.926662 257.939261 240.422087 256.783495 239.312911 
C 255.627729 238.203736 254.059954 237.580521 252.425455 237.580521 
C 250.790955 237.580521 249.22318 238.203736 248.067414 239.312911 
C 246.911648 240.422087 246.262255 241.926662 246.262255 243.495273 
C 246.262255 245.063883 246.911648 246.568459 248.067414 247.677634 
C 249.22318 248.786809 250.790955 249.410025 252.425455 249.410025 
z
" clip-path="url(#p4701802f03)" style="fill: #2980b9; stroke: #ffffff; stroke-width: 0.7; stroke-linejoin: miter"/>
   </g>
   <g id="patch_21">
    <path d="M 175.385455 249.410025 
C 177.019954 249.410025 178.587729 248.786809 179.743495 247.677634 
C 180.899261 246.568459 181.548655 245.063883 181.548655 243.495273 
C 181.548655 241.926662 180.899261 240.422087 179.743495 239.312911 
C 178.587729 238.203736 177.019954 237.580521 175.385455 237.580521 
C 173.750955 237.580521 172.18318 238.203736 171.027414 239.312911 
C 169.871648 240.422087 169.222255 241.926662 169.222255 243.495273 
C 169.222255 245.063883 169.871648 246.568459 171.027414 247.677634 
C 172.18318 248.786809 173.750955 249.410025 175.385455 249.410025 
z
" clip-path="url(#p4701802f03)" style="fill: #2980b9; stroke: #ffffff; stroke-width: 0.7; stroke-linejoin: miter"/>
   </g>
   <g id="patch_22">
    <path d="M 276.406191 227.515164 
C 278.040691 227.515164 279.608466 226.891949 280.764232 225.782774 
C 281.919997 224.673598 282.569391 223.169023 282.569391 221.600412 
C 282.569391 220.031802 281.919997 218.527226 280.764232 217.418051 
C 279.608466 216.308876 278.040691 215.68566 276.406191 215.68566 
C 274.771691 215.68566 273.203916 216.308876 272.04815 217.418051 
C 270.892385 218.527226 270.242991 220.031802 270.242991 221.600412 
C 270.242991 223.169023 270.892385 224.673598 272.04815 225.782774 
C 273.203916 226.891949 274.771691 227.515164 276.406191 227.515164 
z
" clip-path="url(#p4701802f03)" style="fill: #2980b9; stroke: #ffffff; stroke-width: 0.7; stroke-linejoin: miter"/>
   </g>
   <g id="patch_23">
    <path d="M 241.967826 191.514881 
C 243.602326 191.514881 245.170101 190.891666 246.325867 189.782491 
C 247.481633 188.673316 248.131026 187.16874 248.131026 185.600129 
C 248.131026 184.031519 247.481633 182.526943 246.325867 181.417768 
C 245.170101 180.308593 243.602326 179.685377 241.967826 179.685377 
C 240.333327 179.685377 238.765552 180.308593 237.609786 181.417768 
C 236.45402 182.526943 235.804626 184.031519 235.804626 185.600129 
C 235.804626 187.16874 236.45402 188.673316 237.609786 189.782491 
C 238.765552 190.891666 240.333327 191.514881 241.967826 191.514881 
z
" clip-path="url(#p4701802f03)" style="fill: #2980b9; stroke: #ffffff; stroke-width: 0.7; stroke-linejoin: miter"/>
   </g>
   <g id="patch_24">
    <path d="M 191.090905 189.428788 
C 192.725405 189.428788 194.293179 188.805573 195.448945 187.696398 
C 196.604711 186.587222 197.254105 185.082647 197.254105 183.514036 
C 197.254105 181.945426 196.604711 180.44085 195.448945 179.331675 
C 194.293179 178.2225 192.725405 177.599284 191.090905 177.599284 
C 189.456405 177.599284 187.88863 178.2225 186.732864 179.331675 
C 185.577098 180.44085 184.927705 181.945426 184.927705 183.514036 
C 184.927705 185.082647 185.577098 186.587222 186.732864 187.696398 
C 187.88863 188.805573 189.456405 189.428788 191.090905 189.428788 
z
" clip-path="url(#p4701802f03)" style="fill: #2980b9; stroke: #ffffff; stroke-width: 0.7; stroke-linejoin: miter"/>
   </g>
   <g id="patch_25">
    <path d="M 153.578437 222.47889 
C 155.212937 222.47889 156.780712 221.855674 157.936478 220.746499 
C 159.092243 219.637324 159.741637 218.132749 159.741637 216.564138 
C 159.741637 214.995527 159.092243 213.490952 157.936478 212.381777 
C 156.780712 211.272602 155.212937 210.649386 153.578437 210.649386 
C 151.943937 210.649386 150.376162 211.272602 149.220397 212.381777 
C 148.064631 213.490952 147.415237 214.995527 147.415237 216.564138 
C 147.415237 218.132749 148.064631 219.637324 149.220397 220.746499 
C 150.376162 221.855674 151.943937 222.47889 153.578437 222.47889 
z
" clip-path="url(#p4701802f03)" style="fill: #2980b9; stroke: #ffffff; stroke-width: 0.7; stroke-linejoin: miter"/>
   </g>
   <g id="patch_26">
    <path d="M 151.404718 271.304885 
C 153.039218 271.304885 154.606993 270.68167 155.762759 269.572494 
C 156.918524 268.463319 157.567918 266.958744 157.567918 265.390133 
C 157.567918 263.821523 156.918524 262.316947 155.762759 261.207772 
C 154.606993 260.098597 153.039218 259.475381 151.404718 259.475381 
C 149.770218 259.475381 148.202443 260.098597 147.046678 261.207772 
C 145.890912 262.316947 145.241518 263.821523 145.241518 265.390133 
C 145.241518 266.958744 145.890912 268.463319 147.046678 269.572494 
C 148.202443 270.68167 149.770218 271.304885 151.404718 271.304885 
z
" clip-path="url(#p4701802f03)" style="fill: #2980b9; stroke: #ffffff; stroke-width: 0.7; stroke-linejoin: miter"/>
   </g>
   <g id="patch_27">
    <path d="M 185.843083 307.305168 
C 187.477583 307.305168 189.045357 306.681952 190.201123 305.572777 
C 191.356889 304.463602 192.006283 302.959027 192.006283 301.390416 
C 192.006283 299.821805 191.356889 298.31723 190.201123 297.208055 
C 189.045357 296.09888 187.477583 295.475664 185.843083 295.475664 
C 184.208583 295.475664 182.640808 296.09888 181.485042 297.208055 
C 180.329276 298.31723 179.679883 299.821805 179.679883 301.390416 
C 179.679883 302.959027 180.329276 304.463602 181.485042 305.572777 
C 182.640808 306.681952 184.208583 307.305168 185.843083 307.305168 
z
" clip-path="url(#p4701802f03)" style="fill: #2980b9; stroke: #ffffff; stroke-width: 0.7; stroke-linejoin: miter"/>
   </g>
   <g id="patch_28">
    <path d="M 236.720004 309.391261 
C 238.354504 309.391261 239.922279 308.768046 241.078045 307.65887 
C 242.233811 306.549695 242.883204 305.04512 242.883204 303.476509 
C 242.883204 301.907899 242.233811 300.403323 241.078045 299.294148 
C 239.922279 298.184973 238.354504 297.561757 236.720004 297.561757 
C 235.085505 297.561757 233.51773 298.184973 232.361964 299.294148 
C 231.206198 300.403323 230.556804 301.907899 230.556804 303.476509 
C 230.556804 305.04512 231.206198 306.549695 232.361964 307.65887 
C 233.51773 308.768046 235.085505 309.391261 236.720004 309.391261 
z
" clip-path="url(#p4701802f03)" style="fill: #2980b9; stroke: #ffffff; stroke-width: 0.7; stroke-linejoin: miter"/>
   </g>
   <g id="patch_29">
    <path d="M 274.232472 276.341159 
C 275.866972 276.341159 277.434747 275.717944 278.590512 274.608769 
C 279.746278 273.499594 280.395672 271.995018 280.395672 270.426407 
C 280.395672 268.857797 279.746278 267.353221 278.590512 266.244046 
C 277.434747 265.134871 275.866972 264.511655 274.232472 264.511655 
C 272.597972 264.511655 271.030197 265.134871 269.874431 266.244046 
C 268.718666 267.353221 268.069272 268.857797 268.069272 270.426407 
C 268.069272 271.995018 268.718666 273.499594 269.874431 274.608769 
C 271.030197 275.717944 272.597972 276.341159 274.232472 276.341159 
z
" clip-path="url(#p4701802f03)" style="fill: #2980b9; stroke: #ffffff; stroke-width: 0.7; stroke-linejoin: miter"/>
   </g>
   <g id="patch_30">
    <path d="M 308.454545 249.410025 
C 310.089045 249.410025 311.65682 248.786809 312.812586 247.677634 
C 313.968352 246.568459 314.617745 245.063883 314.617745 243.495273 
C 314.617745 241.926662 313.968352 240.422087 312.812586 239.312911 
C 311.65682 238.203736 310.089045 237.580521 308.454545 237.580521 
C 306.820046 237.580521 305.252271 238.203736 304.096505 239.312911 
C 302.940739 240.422087 302.291345 241.926662 302.291345 243.495273 
C 302.291345 245.063883 302.940739 246.568459 304.096505 247.677634 
C 305.252271 248.786809 306.820046 249.410025 308.454545 249.410025 
z
" clip-path="url(#p4701802f03)" style="fill: #c0392b; stroke: #ffffff; stroke-width: 0.7; stroke-linejoin: miter"/>
   </g>
   <g id="patch_31">
    <path d="M 616.614545 249.410025 
C 618.249045 249.410025 619.81682 248.786809 620.972586 247.677634 
C 622.128352 246.568459 622.777745 245.063883 622.777745 243.495273 
C 622.777745 241.926662 622.128352 240.422087 620.972586 239.312911 
C 619.81682 238.203736 618.249045 237.580521 616.614545 237.580521 
C 614.980046 237.580521 613.412271 238.203736 612.256505 239.312911 
C 611.100739 240.422087 610.451345 241.926662 610.451345 243.495273 
C 610.451345 245.063883 611.100739 246.568459 612.256505 247.677634 
C 613.412271 248.786809 614.980046 249.410025 616.614545 249.410025 
z
" clip-path="url(#p4701802f03)" style="fill: #2980b9; stroke: #ffffff; stroke-width: 0.7; stroke-linejoin: miter"/>
   </g>
   <g id="patch_32">
    <path d="M 539.574545 249.410025 
C 541.209045 249.410025 542.77682 248.786809 543.932586 247.677634 
C 545.088352 246.568459 545.737745 245.063883 545.737745 243.495273 
C 545.737745 241.926662 545.088352 240.422087 543.932586 239.312911 
C 542.77682 238.203736 541.209045 237.580521 539.574545 237.580521 
C 537.940046 237.580521 536.372271 238.203736 535.216505 239.312911 
C 534.060739 240.422087 533.411345 241.926662 533.411345 243.495273 
C 533.411345 245.063883 534.060739 246.568459 535.216505 247.677634 
C 536.372271 248.786809 537.940046 249.410025 539.574545 249.410025 
z
" clip-path="url(#p4701802f03)" style="fill: #2980b9; stroke: #ffffff; stroke-width: 0.7; stroke-linejoin: miter"/>
   </g>
   <g id="patch_33">
    <path d="M 640.595282 227.515164 
C 642.229782 227.515164 643.797557 226.891949 644.953322 225.782774 
C 646.109088 224.673598 646.758482 223.169023 646.758482 221.600412 
C 646.758482 220.031802 646.109088 218.527226 644.953322 217.418051 
C 643.797557 216.308876 642.229782 215.68566 640.595282 215.68566 
C 638.960782 215.68566 637.393007 216.308876 636.237241 217.418051 
C 635.081476 218.527226 634.432082 220.031802 634.432082 221.600412 
C 634.432082 223.169023 635.081476 224.673598 636.237241 225.782774 
C 637.393007 226.891949 638.960782 227.515164 640.595282 227.515164 
z
" clip-path="url(#p4701802f03)" style="fill: #2980b9; stroke: #ffffff; stroke-width: 0.7; stroke-linejoin: miter"/>
   </g>
   <g id="patch_34">
    <path d="M 599.225984 188.863584 
C 600.860484 188.863584 602.428259 188.240368 603.584025 187.131193 
C 604.73979 186.022018 605.389184 184.517442 605.389184 182.948832 
C 605.389184 181.380221 604.73979 179.875646 603.584025 178.76647 
C 602.428259 177.657295 600.860484 177.03408 599.225984 177.03408 
C 597.591484 177.03408 596.023709 177.657295 594.867943 178.76647 
C 593.712178 179.875646 593.062784 181.380221 593.062784 182.948832 
C 593.062784 184.517442 593.712178 186.022018 594.867943 187.131193 
C 596.023709 188.240368 597.591484 188.863584 599.225984 188.863584 
z
" clip-path="url(#p4701802f03)" style="fill: #2980b9; stroke: #ffffff; stroke-width: 0.7; stroke-linejoin: miter"/>
   </g>
   <g id="patch_35">
    <path d="M 541.944282 195.804708 
C 543.578782 195.804708 545.146557 195.181492 546.302322 194.072317 
C 547.458088 192.963142 548.107482 191.458567 548.107482 189.889956 
C 548.107482 188.321345 547.458088 186.81677 546.302322 185.707595 
C 545.146557 184.59842 543.578782 183.975204 541.944282 183.975204 
C 540.309782 183.975204 538.742007 184.59842 537.586241 185.707595 
C 536.430475 186.81677 535.781082 188.321345 535.781082 189.889956 
C 535.781082 191.458567 536.430475 192.963142 537.586241 194.072317 
C 538.742007 195.181492 540.309782 195.804708 541.944282 195.804708 
z
" clip-path="url(#p4701802f03)" style="fill: #2980b9; stroke: #ffffff; stroke-width: 0.7; stroke-linejoin: miter"/>
   </g>
   <g id="patch_36">
    <path d="M 511.884466 243.111729 
C 513.518965 243.111729 515.08674 242.488514 516.242506 241.379338 
C 517.398272 240.270163 518.047666 238.765588 518.047666 237.196977 
C 518.047666 235.628367 517.398272 234.123791 516.242506 233.014616 
C 515.08674 231.905441 513.518965 231.282225 511.884466 231.282225 
C 510.249966 231.282225 508.682191 231.905441 507.526425 233.014616 
C 506.370659 234.123791 505.721266 235.628367 505.721266 237.196977 
C 505.721266 238.765588 506.370659 240.270163 507.526425 241.379338 
C 508.682191 242.488514 510.249966 243.111729 511.884466 243.111729 
z
" clip-path="url(#p4701802f03)" style="fill: #2980b9; stroke: #ffffff; stroke-width: 0.7; stroke-linejoin: miter"/>
   </g>
   <g id="patch_37">
    <path d="M 531.68219 295.161495 
C 533.31669 295.161495 534.884464 294.53828 536.04023 293.429105 
C 537.195996 292.31993 537.84539 290.815354 537.84539 289.246743 
C 537.84539 287.678133 537.195996 286.173557 536.04023 285.064382 
C 534.884464 283.955207 533.31669 283.331991 531.68219 283.331991 
C 530.04769 283.331991 528.479915 283.955207 527.324149 285.064382 
C 526.168383 286.173557 525.51899 287.678133 525.51899 289.246743 
C 525.51899 290.815354 526.168383 292.31993 527.324149 293.429105 
C 528.479915 294.53828 530.04769 295.161495 531.68219 295.161495 
z
" clip-path="url(#p4701802f03)" style="fill: #2980b9; stroke: #ffffff; stroke-width: 0.7; stroke-linejoin: miter"/>
   </g>
   <g id="patch_38">
    <path d="M 586.429365 312.759471 
C 588.063864 312.759471 589.631639 312.136255 590.787405 311.02708 
C 591.943171 309.917905 592.592565 308.41333 592.592565 306.844719 
C 592.592565 305.276108 591.943171 303.771533 590.787405 302.662358 
C 589.631639 301.553183 588.063864 300.929967 586.429365 300.929967 
C 584.794865 300.929967 583.22709 301.553183 582.071324 302.662358 
C 580.915558 303.771533 580.266165 305.276108 580.266165 306.844719 
C 580.266165 308.41333 580.915558 309.917905 582.071324 311.02708 
C 583.22709 312.136255 584.794865 312.759471 586.429365 312.759471 
z
" clip-path="url(#p4701802f03)" style="fill: #2980b9; stroke: #ffffff; stroke-width: 0.7; stroke-linejoin: miter"/>
   </g>
   <g id="patch_39">
    <path d="M 634.900251 282.654021 
C 636.53475 282.654021 638.102525 282.030806 639.258291 280.921631 
C 640.414057 279.812456 641.063451 278.30788 641.063451 276.739269 
C 641.063451 275.170659 640.414057 273.666083 639.258291 272.556908 
C 638.102525 271.447733 636.53475 270.824517 634.900251 270.824517 
C 633.265751 270.824517 631.697976 271.447733 630.54221 272.556908 
C 629.386444 273.666083 628.737051 275.170659 628.737051 276.739269 
C 628.737051 278.30788 629.386444 279.812456 630.54221 280.921631 
C 631.697976 282.030806 633.265751 282.654021 634.900251 282.654021 
z
" clip-path="url(#p4701802f03)" style="fill: #2980b9; stroke: #ffffff; stroke-width: 0.7; stroke-linejoin: miter"/>
   </g>
   <g id="patch_40">
    <path d="M 252.425455 612.360716 
C 254.059954 612.360716 255.627729 611.7375 256.783495 610.628325 
C 257.939261 609.51915 258.588655 608.014574 258.588655 606.445964 
C 258.588655 604.877353 257.939261 603.372778 256.783495 602.263602 
C 255.627729 601.154427 254.059954 600.531212 252.425455 600.531212 
C 250.790955 600.531212 249.22318 601.154427 248.067414 602.263602 
C 246.911648 603.372778 246.262255 604.877353 246.262255 606.445964 
C 246.262255 608.014574 246.911648 609.51915 248.067414 610.628325 
C 249.22318 611.7375 250.790955 612.360716 252.425455 612.360716 
z
" clip-path="url(#p4701802f03)" style="fill: #2980b9; stroke: #ffffff; stroke-width: 0.7; stroke-linejoin: miter"/>
   </g>
   <g id="patch_41">
    <path d="M 175.385455 612.360716 
C 177.019954 612.360716 178.587729 611.7375 179.743495 610.628325 
C 180.899261 609.51915 181.548655 608.014574 181.548655 606.445964 
C 181.548655 604.877353 180.899261 603.372778 179.743495 602.263602 
C 178.587729 601.154427 177.019954 600.531212 175.385455 600.531212 
C 173.750955 600.531212 172.18318 601.154427 171.027414 602.263602 
C 169.871648 603.372778 169.222255 604.877353 169.222255 606.445964 
C 169.222255 608.014574 169.871648 609.51915 171.027414 610.628325 
C 172.18318 611.7375 173.750955 612.360716 175.385455 612.360716 
z
" clip-path="url(#p4701802f03)" style="fill: #2980b9; stroke: #ffffff; stroke-width: 0.7; stroke-linejoin: miter"/>
   </g>
   <g id="patch_42">
    <path d="M 276.406191 590.465855 
C 278.040691 590.465855 279.608466 589.84264 280.764232 588.733464 
C 281.919997 587.624289 282.569391 586.119714 282.569391 584.551103 
C 282.569391 582.982493 281.919997 581.477917 280.764232 580.368742 
C 279.608466 579.259567 278.040691 578.636351 276.406191 578.636351 
C 274.771691 578.636351 273.203916 579.259567 272.04815 580.368742 
C 270.892385 581.477917 270.242991 582.982493 270.242991 584.551103 
C 270.242991 586.119714 270.892385 587.624289 272.04815 588.733464 
C 273.203916 589.84264 274.771691 590.465855 276.406191 590.465855 
z
" clip-path="url(#p4701802f03)" style="fill: #2980b9; stroke: #ffffff; stroke-width: 0.7; stroke-linejoin: miter"/>
   </g>
   <g id="patch_43">
    <path d="M 241.967826 554.465572 
C 243.602326 554.465572 245.170101 553.842357 246.325867 552.733182 
C 247.481633 551.624006 248.131026 550.119431 248.131026 548.55082 
C 248.131026 546.98221 247.481633 545.477634 246.325867 544.368459 
C 245.170101 543.259284 243.602326 542.636068 241.967826 542.636068 
C 240.333327 542.636068 238.765552 543.259284 237.609786 544.368459 
C 236.45402 545.477634 235.804626 546.98221 235.804626 548.55082 
C 235.804626 550.119431 236.45402 551.624006 237.609786 552.733182 
C 238.765552 553.842357 240.333327 554.465572 241.967826 554.465572 
z
" clip-path="url(#p4701802f03)" style="fill: #2980b9; stroke: #ffffff; stroke-width: 0.7; stroke-linejoin: miter"/>
   </g>
   <g id="patch_44">
    <path d="M 191.090905 552.379479 
C 192.725405 552.379479 194.293179 551.756264 195.448945 550.647089 
C 196.604711 549.537913 197.254105 548.033338 197.254105 546.464727 
C 197.254105 544.896117 196.604711 543.391541 195.448945 542.282366 
C 194.293179 541.173191 192.725405 540.549975 191.090905 540.549975 
C 189.456405 540.549975 187.88863 541.173191 186.732864 542.282366 
C 185.577098 543.391541 184.927705 544.896117 184.927705 546.464727 
C 184.927705 548.033338 185.577098 549.537913 186.732864 550.647089 
C 187.88863 551.756264 189.456405 552.379479 191.090905 552.379479 
z
" clip-path="url(#p4701802f03)" style="fill: #2980b9; stroke: #ffffff; stroke-width: 0.7; stroke-linejoin: miter"/>
   </g>
   <g id="patch_45">
    <path d="M 153.578437 585.429581 
C 155.212937 585.429581 156.780712 584.806365 157.936478 583.69719 
C 159.092243 582.588015 159.741637 581.08344 159.741637 579.514829 
C 159.741637 577.946218 159.092243 576.441643 157.936478 575.332468 
C 156.780712 574.223293 155.212937 573.600077 153.578437 573.600077 
C 151.943937 573.600077 150.376162 574.223293 149.220397 575.332468 
C 148.064631 576.441643 147.415237 577.946218 147.415237 579.514829 
C 147.415237 581.08344 148.064631 582.588015 149.220397 583.69719 
C 150.376162 584.806365 151.943937 585.429581 153.578437 585.429581 
z
" clip-path="url(#p4701802f03)" style="fill: #2980b9; stroke: #ffffff; stroke-width: 0.7; stroke-linejoin: miter"/>
   </g>
   <g id="patch_46">
    <path d="M 151.404718 634.255576 
C 153.039218 634.255576 154.606993 633.63236 155.762759 632.523185 
C 156.918524 631.41401 157.567918 629.909435 157.567918 628.340824 
C 157.567918 626.772214 156.918524 625.267638 155.762759 624.158463 
C 154.606993 623.049288 153.039218 622.426072 151.404718 622.426072 
C 149.770218 622.426072 148.202443 623.049288 147.046678 624.158463 
C 145.890912 625.267638 145.241518 626.772214 145.241518 628.340824 
C 145.241518 629.909435 145.890912 631.41401 147.046678 632.523185 
C 148.202443 633.63236 149.770218 634.255576 151.404718 634.255576 
z
" clip-path="url(#p4701802f03)" style="fill: #2980b9; stroke: #ffffff; stroke-width: 0.7; stroke-linejoin: miter"/>
   </g>
   <g id="patch_47">
    <path d="M 185.843083 670.255859 
C 187.477583 670.255859 189.045357 669.632643 190.201123 668.523468 
C 191.356889 667.414293 192.006283 665.909717 192.006283 664.341107 
C 192.006283 662.772496 191.356889 661.267921 190.201123 660.158746 
C 189.045357 659.04957 187.477583 658.426355 185.843083 658.426355 
C 184.208583 658.426355 182.640808 659.04957 181.485042 660.158746 
C 180.329276 661.267921 179.679883 662.772496 179.679883 664.341107 
C 179.679883 665.909717 180.329276 667.414293 181.485042 668.523468 
C 182.640808 669.632643 184.208583 670.255859 185.843083 670.255859 
z
" clip-path="url(#p4701802f03)" style="fill: #2980b9; stroke: #ffffff; stroke-width: 0.7; stroke-linejoin: miter"/>
   </g>
   <g id="patch_48">
    <path d="M 236.720004 672.341952 
C 238.354504 672.341952 239.922279 671.718736 241.078045 670.609561 
C 242.233811 669.500386 242.883204 667.995811 242.883204 666.4272 
C 242.883204 664.858589 242.233811 663.354014 241.078045 662.244839 
C 239.922279 661.135664 238.354504 660.512448 236.720004 660.512448 
C 235.085505 660.512448 233.51773 661.135664 232.361964 662.244839 
C 231.206198 663.354014 230.556804 664.858589 230.556804 666.4272 
C 230.556804 667.995811 231.206198 669.500386 232.361964 670.609561 
C 233.51773 671.718736 235.085505 672.341952 236.720004 672.341952 
z
" clip-path="url(#p4701802f03)" style="fill: #2980b9; stroke: #ffffff; stroke-width: 0.7; stroke-linejoin: miter"/>
   </g>
   <g id="patch_49">
    <path d="M 274.232472 639.29185 
C 275.866972 639.29185 277.434747 638.668635 278.590512 637.55946 
C 279.746278 636.450284 280.395672 634.945709 280.395672 633.377098 
C 280.395672 631.808488 279.746278 630.303912 278.590512 629.194737 
C 277.434747 628.085562 275.866972 627.462346 274.232472 627.462346 
C 272.597972 627.462346 271.030197 628.085562 269.874431 629.194737 
C 268.718666 630.303912 268.069272 631.808488 268.069272 633.377098 
C 268.069272 634.945709 268.718666 636.450284 269.874431 637.55946 
C 271.030197 638.668635 272.597972 639.29185 274.232472 639.29185 
z
" clip-path="url(#p4701802f03)" style="fill: #2980b9; stroke: #ffffff; stroke-width: 0.7; stroke-linejoin: miter"/>
   </g>
   <g id="patch_50">
    <path d="M 616.614545 612.360716 
C 618.249045 612.360716 619.81682 611.7375 620.972586 610.628325 
C 622.128352 609.51915 622.777745 608.014574 622.777745 606.445964 
C 622.777745 604.877353 622.128352 603.372778 620.972586 602.263602 
C 619.81682 601.154427 618.249045 600.531212 616.614545 600.531212 
C 614.980046 600.531212 613.412271 601.154427 612.256505 602.263602 
C 611.100739 603.372778 610.451345 604.877353 610.451345 606.445964 
C 610.451345 608.014574 611.100739 609.51915 612.256505 610.628325 
C 613.412271 611.7375 614.980046 612.360716 616.614545 612.360716 
z
" clip-path="url(#p4701802f03)" style="fill: #2980b9; stroke: #ffffff; stroke-width: 0.7; stroke-linejoin: miter"/>
   </g>
   <g id="patch_51">
    <path d="M 539.574545 612.360716 
C 541.209045 612.360716 542.77682 611.7375 543.932586 610.628325 
C 545.088352 609.51915 545.737745 608.014574 545.737745 606.445964 
C 545.737745 604.877353 545.088352 603.372778 543.932586 602.263602 
C 542.77682 601.154427 541.209045 600.531212 539.574545 600.531212 
C 537.940046 600.531212 536.372271 601.154427 535.216505 602.263602 
C 534.060739 603.372778 533.411345 604.877353 533.411345 606.445964 
C 533.411345 608.014574 534.060739 609.51915 535.216505 610.628325 
C 536.372271 611.7375 537.940046 612.360716 539.574545 612.360716 
z
" clip-path="url(#p4701802f03)" style="fill: #2980b9; stroke: #ffffff; stroke-width: 0.7; stroke-linejoin: miter"/>
   </g>
   <g id="patch_52">
    <path d="M 640.595282 590.465855 
C 642.229782 590.465855 643.797557 589.84264 644.953322 588.733464 
C 646.109088 587.624289 646.758482 586.119714 646.758482 584.551103 
C 646.758482 582.982493 646.109088 581.477917 644.953322 580.368742 
C 643.797557 579.259567 642.229782 578.636351 640.595282 578.636351 
C 638.960782 578.636351 637.393007 579.259567 636.237241 580.368742 
C 635.081476 581.477917 634.432082 582.982493 634.432082 584.551103 
C 634.432082 586.119714 635.081476 587.624289 636.237241 588.733464 
C 637.393007 589.84264 638.960782 590.465855 640.595282 590.465855 
z
" clip-path="url(#p4701802f03)" style="fill: #2980b9; stroke: #ffffff; stroke-width: 0.7; stroke-linejoin: miter"/>
   </g>
   <g id="patch_53">
    <path d="M 606.156917 554.465572 
C 607.791417 554.465572 609.359192 553.842357 610.514958 552.733182 
C 611.670724 551.624006 612.320117 550.119431 612.320117 548.55082 
C 612.320117 546.98221 611.670724 545.477634 610.514958 544.368459 
C 609.359192 543.259284 607.791417 542.636068 606.156917 542.636068 
C 604.522417 542.636068 602.954643 543.259284 601.798877 544.368459 
C 600.643111 545.477634 599.993717 546.98221 599.993717 548.55082 
C 599.993717 550.119431 600.643111 551.624006 601.798877 552.733182 
C 602.954643 553.842357 604.522417 554.465572 606.156917 554.465572 
z
" clip-path="url(#p4701802f03)" style="fill: #2980b9; stroke: #ffffff; stroke-width: 0.7; stroke-linejoin: miter"/>
   </g>
   <g id="patch_54">
    <path d="M 555.279996 552.379479 
C 556.914495 552.379479 558.48227 551.756264 559.638036 550.647089 
C 560.793802 549.537913 561.443196 548.033338 561.443196 546.464727 
C 561.443196 544.896117 560.793802 543.391541 559.638036 542.282366 
C 558.48227 541.173191 556.914495 540.549975 555.279996 540.549975 
C 553.645496 540.549975 552.077721 541.173191 550.921955 542.282366 
C 549.766189 543.391541 549.116796 544.896117 549.116796 546.464727 
C 549.116796 548.033338 549.766189 549.537913 550.921955 550.647089 
C 552.077721 551.756264 553.645496 552.379479 555.279996 552.379479 
z
" clip-path="url(#p4701802f03)" style="fill: #2980b9; stroke: #ffffff; stroke-width: 0.7; stroke-linejoin: miter"/>
   </g>
   <g id="patch_55">
    <path d="M 517.767528 585.429581 
C 519.402028 585.429581 520.969803 584.806365 522.125569 583.69719 
C 523.281334 582.588015 523.930728 581.08344 523.930728 579.514829 
C 523.930728 577.946218 523.281334 576.441643 522.125569 575.332468 
C 520.969803 574.223293 519.402028 573.600077 517.767528 573.600077 
C 516.133028 573.600077 514.565253 574.223293 513.409488 575.332468 
C 512.253722 576.441643 511.604328 577.946218 511.604328 579.514829 
C 511.604328 581.08344 512.253722 582.588015 513.409488 583.69719 
C 514.565253 584.806365 516.133028 585.429581 517.767528 585.429581 
z
" clip-path="url(#p4701802f03)" style="fill: #2980b9; stroke: #ffffff; stroke-width: 0.7; stroke-linejoin: miter"/>
   </g>
   <g id="patch_56">
    <path d="M 515.593809 634.255576 
C 517.228309 634.255576 518.796084 633.63236 519.95185 632.523185 
C 521.107615 631.41401 521.757009 629.909435 521.757009 628.340824 
C 521.757009 626.772214 521.107615 625.267638 519.95185 624.158463 
C 518.796084 623.049288 517.228309 622.426072 515.593809 622.426072 
C 513.959309 622.426072 512.391534 623.049288 511.235768 624.158463 
C 510.080003 625.267638 509.430609 626.772214 509.430609 628.340824 
C 509.430609 629.909435 510.080003 631.41401 511.235768 632.523185 
C 512.391534 633.63236 513.959309 634.255576 515.593809 634.255576 
z
" clip-path="url(#p4701802f03)" style="fill: #2980b9; stroke: #ffffff; stroke-width: 0.7; stroke-linejoin: miter"/>
   </g>
   <g id="patch_57">
    <path d="M 550.032174 670.255859 
C 551.666673 670.255859 553.234448 669.632643 554.390214 668.523468 
C 555.54598 667.414293 556.195374 665.909717 556.195374 664.341107 
C 556.195374 662.772496 555.54598 661.267921 554.390214 660.158746 
C 553.234448 659.04957 551.666673 658.426355 550.032174 658.426355 
C 548.397674 658.426355 546.829899 659.04957 545.674133 660.158746 
C 544.518367 661.267921 543.868974 662.772496 543.868974 664.341107 
C 543.868974 665.909717 544.518367 667.414293 545.674133 668.523468 
C 546.829899 669.632643 548.397674 670.255859 550.032174 670.255859 
z
" clip-path="url(#p4701802f03)" style="fill: #2980b9; stroke: #ffffff; stroke-width: 0.7; stroke-linejoin: miter"/>
   </g>
   <g id="patch_58">
    <path d="M 600.909095 672.341952 
C 602.543595 672.341952 604.11137 671.718736 605.267136 670.609561 
C 606.422902 669.500386 607.072295 667.995811 607.072295 666.4272 
C 607.072295 664.858589 606.422902 663.354014 605.267136 662.244839 
C 604.11137 661.135664 602.543595 660.512448 600.909095 660.512448 
C 599.274595 660.512448 597.706821 661.135664 596.551055 662.244839 
C 595.395289 663.354014 594.745895 664.858589 594.745895 666.4272 
C 594.745895 667.995811 595.395289 669.500386 596.551055 670.609561 
C 597.706821 671.718736 599.274595 672.341952 600.909095 672.341952 
z
" clip-path="url(#p4701802f03)" style="fill: #2980b9; stroke: #ffffff; stroke-width: 0.7; stroke-linejoin: miter"/>
   </g>
   <g id="patch_59">
    <path d="M 638.421563 639.29185 
C 640.056063 639.29185 641.623838 638.668635 642.779603 637.55946 
C 643.935369 636.450284 644.584763 634.945709 644.584763 633.377098 
C 644.584763 631.808488 643.935369 630.303912 642.779603 629.194737 
C 641.623838 628.085562 640.056063 627.462346 638.421563 627.462346 
C 636.787063 627.462346 635.219288 628.085562 634.063522 629.194737 
C 632.907757 630.303912 632.258363 631.808488 632.258363 633.377098 
C 632.258363 634.945709 632.907757 636.450284 634.063522 637.55946 
C 635.219288 638.668635 636.787063 639.29185 638.421563 639.29185 
z
" clip-path="url(#p4701802f03)" style="fill: #2980b9; stroke: #ffffff; stroke-width: 0.7; stroke-linejoin: miter"/>
   </g>
  </g>
 </g>
 <defs>
  <clipPath id="p4701802f03">
   <rect x="10.8" y="41.856" width="770.4" height="739.344"/>
  </clipPath>
 </defs>
</svg>
