<?xml version="1.0" encoding="utf-8" standalone="no"?>
<!DOCTYPE svg PUBLIC "-//W3C//DTD SVG 1.1//EN"
  "http://www.w3.org/Graphics/SVG/1.1/DTD/svg11.dtd">
<svg xmlns:xlink="http://www.w3.org/1999/xlink" width="576pt" height="288pt" viewBox="0 0 576 288" xmlns="http://www.w3.org/2000/svg" version="1.1">
 <metadata>
  <rdf:RDF xmlns:dc="http://purl.org/dc/elements/1.1/" xmlns:cc="http://creativecommons.org/ns#" xmlns:rdf="http://www.w3.org/1999/02/22-rdf-syntax-ns#">
   <cc:Work>
    <dc:type rdf:resource="http://purl.org/dc/dcmitype/StillImage"/>
    <dc:date>2026-08-24T23:39:17.951424</dc:date>
    <dc:format>image/svg+xml</dc:format>
    <dc:creator>
     <cc:Agent>
      <dc:title>Matplotlib v3.8.4, https://matplotlib.org/</dc:title>
     </cc:Agent>
    </dc:creator>
   </cc:Work>
  </rdf:RDF>
 </metadata>
 <defs>
  <style type="text/css">*{stroke-linejoin: round; stroke-linecap: butt}</style>
 </defs>
 <g id="figure_1">
  <g id="patch_1">
   <path d="M 0 288 
L 576 288 
L 576 0 
L 0 0 
z
" style="fill: #ffffff"/>
  </g>
  <g id="axes_1">
   <g id="LineCollection_1">
    <path d="M 33.45 122.307692 
L 124.05 122.307692 
" clip-path="url(#p38d70e50fb)" style="fill: none; stroke: #c0392b; stroke-width: 3"/>
   </g>
   <g id="LineCollection_2">
    <path d="M 169.35 246.221538 
L 259.95 246.221538 
" clip-path="url(#p38d70e50fb)" style="fill: none; stroke: #c0392b; stroke-width: 3"/>
   </g>
   <g id="patch_2">
    <path d="M 80.33221 132.827493 
Q 146.701012 184.2654 211.744269 234.675967 
" style="fill: none; stroke: #333333; stroke-width: 1.5; stroke-linecap: round"/>
    <path d="M 209.807831 230.644812 
L 211.744269 234.675967 
L 207.357482 233.806424 
" style="fill: none; stroke: #333333; stroke-width: 1.5; stroke-linecap: round"/>
   </g>
   <g id="text_1">
    <!-- reactants -->
    <g transform="translate(57.518437 113.014154) scale(0.09 -0.09)">
     <defs>
      <path id="DejaVuSans-72" d="M 2631 2963 
Q 2534 3019 2420 3045 
Q 2306 3072 2169 3072 
Q 1681 3072 1420 2755 
Q 1159 2438 1159 1844 
L 1159 0 
L 581 0 
L 581 3500 
L 1159 3500 
L 1159 2956 
Q 1341 3275 1631 3429 
Q 1922 3584 2338 3584 
Q 2397 3584 2469 3576 
Q 2541 3569 2628 3553 
L 2631 2963 
z
" transform="scale(0.015625)"/>
      <path id="DejaVuSans-65" d="M 3597 1894 
L 3597 1613 
L 953 1613 
Q 991 1019 1311 708 
Q 1631 397 2203 397 
Q 2534 397 2845 478 
Q 3156 559 3463 722 
L 3463 178 
Q 3153 47 2828 -22 
Q 2503 -91 2169 -91 
Q 1331 -91 842 396 
Q 353 884 353 1716 
Q 353 2575 817 3079 
Q 1281 3584 2069 3584 
Q 2775 3584 3186 3129 
Q 3597 2675 3597 1894 
z
M 3022 2063 
Q 3016 2534 2758 2815 
Q 2500 3097 2075 3097 
Q 1594 3097 1305 2825 
Q 1016 2553 972 2059 
L 3022 2063 
z
" transform="scale(0.015625)"/>
      <path id="DejaVuSans-61" d="M 2194 1759 
Q 1497 1759 1228 1600 
Q 959 1441 959 1056 
Q 959 750 1161 570 
Q 1363 391 1709 391 
Q 2188 391 2477 730 
Q 2766 1069 2766 1631 
L 2766 1759 
L 2194 1759 
z
M 3341 1997 
L 3341 0 
L 2766 0 
L 2766 531 
Q 2569 213 2275 61 
Q 1981 -91 1556 -91 
Q 1019 -91 701 211 
Q 384 513 384 1019 
Q 384 1609 779 1909 
Q 1175 2209 1959 2209 
L 2766 2209 
L 2766 2266 
Q 2766 2663 2505 2880 
Q 2244 3097 1772 3097 
Q 1472 3097 1187 3025 
Q 903 2953 641 2809 
L 641 3341 
Q 956 3463 1253 3523 
Q 1550 3584 1831 3584 
Q 2591 3584 2966 3190 
Q 3341 2797 3341 1997 
z
" transform="scale(0.015625)"/>
      <path id="DejaVuSans-63" d="M 3122 3366 
L 3122 2828 
Q 2878 2963 2633 3030 
Q 2388 3097 2138 3097 
Q 1578 3097 1268 2742 
Q 959 2388 959 1747 
Q 959 1106 1268 751 
Q 1578 397 2138 397 
Q 2388 397 2633 464 
Q 2878 531 3122 666 
L 3122 134 
Q 2881 22 2623 -34 
Q 2366 -91 2075 -91 
Q 1284 -91 818 406 
Q 353 903 353 1747 
Q 353 2603 823 3093 
Q 1294 3584 2113 3584 
Q 2378 3584 2631 3529 
Q 2884 3475 3122 3366 
z
" transform="scale(0.015625)"/>
      <path id="DejaVuSans-74" d="M 1172 4494 
L 1172 3500 
L 2356 3500 
L 2356 3053 
L 1172 3053 
L 1172 1153 
Q 1172 725 1289 603 
Q 1406 481 1766 481 
L 2356 481 
L 2356 0 
L 1766 0 
Q 1100 0 847 248 
Q 594 497 594 1153 
L 594 3053 
L 172 3053 
L 172 3500 
L 594 3500 
L 594 4494 
L 1172 4494 
z
" transform="scale(0.015625)"/>
      <path id="DejaVuSans-6e" d="M 3513 2113 
L 3513 0 
L 2938 0 
L 2938 2094 
Q 2938 2591 2744 2837 
Q 2550 3084 2163 3084 
Q 1697 3084 1428 2787 
Q 1159 2491 1159 1978 
L 1159 0 
L 581 0 
L 581 3500 
L 1159 3500 
L 1159 2956 
Q 1366 3272 1645 3428 
Q 1925 3584 2291 3584 
Q 2894 3584 3203 3211 
Q 3513 2838 3513 2113 
z
" transform="scale(0.015625)"/>
      <path id="DejaVuSans-73" d="M 2834 3397 
L 2834 2853 
Q 2591 2978 2328 3040 
Q 2066 3103 1784 3103 
Q 1356 3103 1142 2972 
Q 928 2841 928 2578 
Q 928 2378 1081 2264 
Q 1234 2150 1697 2047 
L 1894 2003 
Q 2506 1872 2764 1633 
Q 3022 1394 3022 966 
Q 3022 478 2636 193 
Q 2250 -91 1575 -91 
Q 1294 -91 989 -36 
Q 684 19 347 128 
L 347 722 
Q 666 556 975 473 
Q 1284 391 1588 391 
Q 1994 391 2212 530 
Q 2431 669 2431 922 
Q 2431 1156 2273 1281 
Q 2116 1406 1581 1522 
L 1381 1569 
Q 847 1681 609 1914 
Q 372 2147 372 2553 
Q 372 3047 722 3315 
Q 1072 3584 1716 3584 
Q 2034 3584 2315 3537 
Q 2597 3491 2834 3397 
z
" transform="scale(0.015625)"/>
     </defs>
     <use xlink:href="#DejaVuSans-72"/>
     <use xlink:href="#DejaVuSans-65" x="38.863281"/>
     <use xlink:href="#DejaVuSans-61" x="100.386719"/>
     <use xlink:href="#DejaVuSans-63" x="161.666016"/>
     <use xlink:href="#DejaVuSans-74" x="216.646484"/>
     <use xlink:href="#DejaVuSans-61" x="255.855469"/>
     <use xlink:href="#DejaVuSans-6e" x="317.134766"/>
     <use xlink:href="#DejaVuSans-74" x="380.513672"/>
     <use xlink:href="#DejaVuSans-73" x="419.722656"/>
    </g>
   </g>
   <g id="text_2">
    <!-- products -->
    <g transform="translate(194.999766 261.710769) scale(0.09 -0.09)">
     <defs>
      <path id="DejaVuSans-70" d="M 1159 525 
L 1159 -1331 
L 581 -1331 
L 581 3500 
L 1159 3500 
L 1159 2969 
Q 1341 3281 1617 3432 
Q 1894 3584 2278 3584 
Q 2916 3584 3314 3078 
Q 3713 2572 3713 1747 
Q 3713 922 3314 415 
Q 2916 -91 2278 -91 
Q 1894 -91 1617 61 
Q 1341 213 1159 525 
z
M 3116 1747 
Q 3116 2381 2855 2742 
Q 2594 3103 2138 3103 
Q 1681 3103 1420 2742 
Q 1159 2381 1159 1747 
Q 1159 1113 1420 752 
Q 1681 391 2138 391 
Q 2594 391 2855 752 
Q 3116 1113 3116 1747 
z
" transform="scale(0.015625)"/>
      <path id="DejaVuSans-6f" d="M 1959 3097 
Q 1497 3097 1228 2736 
Q 959 2375 959 1747 
Q 959 1119 1226 758 
Q 1494 397 1959 397 
Q 2419 397 2687 759 
Q 2956 1122 2956 1747 
Q 2956 2369 2687 2733 
Q 2419 3097 1959 3097 
z
M 1959 3584 
Q 2709 3584 3137 3096 
Q 3566 2609 3566 1747 
Q 3566 888 3137 398 
Q 2709 -91 1959 -91 
Q 1206 -91 779 398 
Q 353 888 353 1747 
Q 353 2609 779 3096 
Q 1206 3584 1959 3584 
z
" transform="scale(0.015625)"/>
      <path id="DejaVuSans-64" d="M 2906 2969 
L 2906 4863 
L 3481 4863 
L 3481 0 
L 2906 0 
L 2906 525 
Q 2725 213 2448 61 
Q 2172 -91 1784 -91 
Q 1150 -91 751 415 
Q 353 922 353 1747 
Q 353 2572 751 3078 
Q 1150 3584 1784 3584 
Q 2172 3584 2448 3432 
Q 2725 3281 2906 2969 
z
M 947 1747 
Q 947 1113 1208 752 
Q 1469 391 1925 391 
Q 2381 391 2643 752 
Q 2906 1113 2906 1747 
Q 2906 2381 2643 2742 
Q 2381 3103 1925 3103 
Q 1469 3103 1208 2742 
Q 947 2381 947 1747 
z
" transform="scale(0.015625)"/>
      <path id="DejaVuSans-75" d="M 544 1381 
L 544 3500 
L 1119 3500 
L 1119 1403 
Q 1119 906 1312 657 
Q 1506 409 1894 409 
Q 2359 409 2629 706 
Q 2900 1003 2900 1516 
L 2900 3500 
L 3475 3500 
L 3475 0 
L 2900 0 
L 2900 538 
Q 2691 219 2414 64 
Q 2138 -91 1772 -91 
Q 1169 -91 856 284 
Q 544 659 544 1381 
z
M 1991 3584 
L 1991 3584 
z
" transform="scale(0.015625)"/>
     </defs>
     <use xlink:href="#DejaVuSans-70"/>
     <use xlink:href="#DejaVuSans-72" x="63.476562"/>
     <use xlink:href="#DejaVuSans-6f" x="102.339844"/>
     <use xlink:href="#DejaVuSans-64" x="163.521484"/>
     <use xlink:href="#DejaVuSans-75" x="226.998047"/>
     <use xlink:href="#DejaVuSans-63" x="290.376953"/>
     <use xlink:href="#DejaVuSans-74" x="345.357422"/>
     <use xlink:href="#DejaVuSans-73" x="384.566406"/>
    </g>
   </g>
   <g id="text_3">
    <!-- releases -->
    <g style="fill: #c0392b" transform="translate(132.478359 167.990892) scale(0.09 -0.09)">
     <defs>
      <path id="DejaVuSans-6c" d="M 603 4863 
L 1178 4863 
L 1178 0 
L 603 0 
L 603 4863 
z
" transform="scale(0.015625)"/>
     </defs>
     <use xlink:href="#DejaVuSans-72"/>
     <use xlink:href="#DejaVuSans-65" x="38.863281"/>
     <use xlink:href="#DejaVuSans-6c" x="100.386719"/>
     <use xlink:href="#DejaVuSans-65" x="128.169922"/>
     <use xlink:href="#DejaVuSans-61" x="189.693359"/>
     <use xlink:href="#DejaVuSans-73" x="250.972656"/>
     <use xlink:href="#DejaVuSans-65" x="303.072266"/>
     <use xlink:href="#DejaVuSans-73" x="364.595703"/>
    </g>
    <!-- heat -->
    <g style="fill: #c0392b" transform="translate(141.087422 178.068923) scale(0.09 -0.09)">
     <defs>
      <path id="DejaVuSans-68" d="M 3513 2113 
L 3513 0 
L 2938 0 
L 2938 2094 
Q 2938 2591 2744 2837 
Q 2550 3084 2163 3084 
Q 1697 3084 1428 2787 
Q 1159 2491 1159 1978 
L 1159 0 
L 581 0 
L 581 4863 
L 1159 4863 
L 1159 2956 
Q 1366 3272 1645 3428 
Q 1925 3584 2291 3584 
Q 2894 3584 3203 3211 
Q 3513 2838 3513 2113 
z
" transform="scale(0.015625)"/>
     </defs>
     <use xlink:href="#DejaVuSans-68"/>
     <use xlink:href="#DejaVuSans-65" x="63.378906"/>
     <use xlink:href="#DejaVuSans-61" x="124.902344"/>
     <use xlink:href="#DejaVuSans-74" x="186.181641"/>
    </g>
   </g>
   <g id="text_4">
    <!-- $\Delta H&lt;0$ -->
    <g transform="translate(130.2 100.622769) scale(0.1 -0.1)">
     <defs>
      <path id="DejaVuSans-394" d="M 2188 4044 
L 906 525 
L 3472 525 
L 2188 4044 
z
M 50 0 
L 1831 4666 
L 2547 4666 
L 4325 0 
L 50 0 
z
" transform="scale(0.015625)"/>
      <path id="DejaVuSans-Oblique-48" d="M 1081 4666 
L 1716 4666 
L 1344 2753 
L 3634 2753 
L 4006 4666 
L 4641 4666 
L 3731 0 
L 3097 0 
L 3531 2222 
L 1241 2222 
L 806 0 
L 172 0 
L 1081 4666 
z
" transform="scale(0.015625)"/>
      <path id="DejaVuSans-3c" d="M 4684 3150 
L 1459 2003 
L 4684 863 
L 4684 294 
L 678 1747 
L 678 2266 
L 4684 3719 
L 4684 3150 
z
" transform="scale(0.015625)"/>
      <path id="DejaVuSans-30" d="M 2034 4250 
Q 1547 4250 1301 3770 
Q 1056 3291 1056 2328 
Q 1056 1369 1301 889 
Q 1547 409 2034 409 
Q 2525 409 2770 889 
Q 3016 1369 3016 2328 
Q 3016 3291 2770 3770 
Q 2525 4250 2034 4250 
z
M 2034 4750 
Q 2819 4750 3233 4129 
Q 3647 3509 3647 2328 
Q 3647 1150 3233 529 
Q 2819 -91 2034 -91 
Q 1250 -91 836 529 
Q 422 1150 422 2328 
Q 422 3509 836 4129 
Q 1250 4750 2034 4750 
z
" transform="scale(0.015625)"/>
     </defs>
     <use xlink:href="#DejaVuSans-394" transform="translate(0 0.78125)"/>
     <use xlink:href="#DejaVuSans-Oblique-48" transform="translate(68.408203 0.78125)"/>
     <use xlink:href="#DejaVuSans-3c" transform="translate(163.085938 0.78125)"/>
     <use xlink:href="#DejaVuSans-30" transform="translate(266.357422 0.78125)"/>
    </g>
   </g>
   <g id="text_5">
    <!-- Exothermic -->
    <g transform="translate(115.675703 69.84) scale(0.11 -0.11)">
     <defs>
      <path id="DejaVuSans-45" d="M 628 4666 
L 3578 4666 
L 3578 4134 
L 1259 4134 
L 1259 2753 
L 3481 2753 
L 3481 2222 
L 1259 2222 
L 1259 531 
L 3634 531 
L 3634 0 
L 628 0 
L 628 4666 
z
" transform="scale(0.015625)"/>
      <path id="DejaVuSans-78" d="M 3513 3500 
L 2247 1797 
L 3578 0 
L 2900 0 
L 1881 1375 
L 863 0 
L 184 0 
L 1544 1831 
L 300 3500 
L 978 3500 
L 1906 2253 
L 2834 3500 
L 3513 3500 
z
" transform="scale(0.015625)"/>
      <path id="DejaVuSans-6d" d="M 3328 2828 
Q 3544 3216 3844 3400 
Q 4144 3584 4550 3584 
Q 5097 3584 5394 3201 
Q 5691 2819 5691 2113 
L 5691 0 
L 5113 0 
L 5113 2094 
Q 5113 2597 4934 2840 
Q 4756 3084 4391 3084 
Q 3944 3084 3684 2787 
Q 3425 2491 3425 1978 
L 3425 0 
L 2847 0 
L 2847 2094 
Q 2847 2600 2669 2842 
Q 2491 3084 2119 3084 
Q 1678 3084 1418 2786 
Q 1159 2488 1159 1978 
L 1159 0 
L 581 0 
L 581 3500 
L 1159 3500 
L 1159 2956 
Q 1356 3278 1631 3431 
Q 1906 3584 2284 3584 
Q 2666 3584 2933 3390 
Q 3200 3197 3328 2828 
z
" transform="scale(0.015625)"/>
      <path id="DejaVuSans-69" d="M 603 3500 
L 1178 3500 
L 1178 0 
L 603 0 
L 603 3500 
z
M 603 4863 
L 1178 4863 
L 1178 4134 
L 603 4134 
L 603 4863 
z
" transform="scale(0.015625)"/>
     </defs>
     <use xlink:href="#DejaVuSans-45"/>
     <use xlink:href="#DejaVuSans-78" x="63.183594"/>
     <use xlink:href="#DejaVuSans-6f" x="119.238281"/>
     <use xlink:href="#DejaVuSans-74" x="180.419922"/>
     <use xlink:href="#DejaVuSans-68" x="219.628906"/>
     <use xlink:href="#DejaVuSans-65" x="283.007812"/>
     <use xlink:href="#DejaVuSans-72" x="344.53125"/>
     <use xlink:href="#DejaVuSans-6d" x="383.894531"/>
     <use xlink:href="#DejaVuSans-69" x="481.306641"/>
     <use xlink:href="#DejaVuSans-63" x="509.089844"/>
    </g>
   </g>
  </g>
  <g id="axes_2">
   <g id="LineCollection_3">
    <path d="M 316.05 246.221538 
L 406.65 246.221538 
" clip-path="url(#p8325b7735e)" style="fill: none; stroke: #2980b9; stroke-width: 3"/>
   </g>
   <g id="LineCollection_4">
    <path d="M 451.95 122.307692 
L 542.55 122.307692 
" clip-path="url(#p8325b7735e)" style="fill: none; stroke: #2980b9; stroke-width: 3"/>
   </g>
   <g id="patch_3">
    <path d="M 362.93221 235.701738 
Q 429.301012 184.263831 494.344269 133.853264 
" style="fill: none; stroke: #333333; stroke-width: 1.5; stroke-linecap: round"/>
    <path d="M 489.957482 134.722807 
L 494.344269 133.853264 
L 492.407831 137.884419 
" style="fill: none; stroke: #333333; stroke-width: 1.5; stroke-linecap: round"/>
   </g>
   <g id="text_6">
    <!-- reactants -->
    <g transform="translate(340.118438 261.710769) scale(0.09 -0.09)">
     <use xlink:href="#DejaVuSans-72"/>
     <use xlink:href="#DejaVuSans-65" x="38.863281"/>
     <use xlink:href="#DejaVuSans-61" x="100.386719"/>
     <use xlink:href="#DejaVuSans-63" x="161.666016"/>
     <use xlink:href="#DejaVuSans-74" x="216.646484"/>
     <use xlink:href="#DejaVuSans-61" x="255.855469"/>
     <use xlink:href="#DejaVuSans-6e" x="317.134766"/>
     <use xlink:href="#DejaVuSans-74" x="380.513672"/>
     <use xlink:href="#DejaVuSans-73" x="419.722656"/>
    </g>
   </g>
   <g id="text_7">
    <!-- products -->
    <g transform="translate(477.599766 113.014154) scale(0.09 -0.09)">
     <use xlink:href="#DejaVuSans-70"/>
     <use xlink:href="#DejaVuSans-72" x="63.476562"/>
     <use xlink:href="#DejaVuSans-6f" x="102.339844"/>
     <use xlink:href="#DejaVuSans-64" x="163.521484"/>
     <use xlink:href="#DejaVuSans-75" x="226.998047"/>
     <use xlink:href="#DejaVuSans-63" x="290.376953"/>
     <use xlink:href="#DejaVuSans-74" x="345.357422"/>
     <use xlink:href="#DejaVuSans-73" x="384.566406"/>
    </g>
   </g>
   <g id="text_8">
    <!-- absorbs -->
    <g style="fill: #2980b9" transform="translate(416.066953 167.990892) scale(0.09 -0.09)">
     <defs>
      <path id="DejaVuSans-62" d="M 3116 1747 
Q 3116 2381 2855 2742 
Q 2594 3103 2138 3103 
Q 1681 3103 1420 2742 
Q 1159 2381 1159 1747 
Q 1159 1113 1420 752 
Q 1681 391 2138 391 
Q 2594 391 2855 752 
Q 3116 1113 3116 1747 
z
M 1159 2969 
Q 1341 3281 1617 3432 
Q 1894 3584 2278 3584 
Q 2916 3584 3314 3078 
Q 3713 2572 3713 1747 
Q 3713 922 3314 415 
Q 2916 -91 2278 -91 
Q 1894 -91 1617 61 
Q 1341 213 1159 525 
L 1159 0 
L 581 0 
L 581 4863 
L 1159 4863 
L 1159 2969 
z
" transform="scale(0.015625)"/>
     </defs>
     <use xlink:href="#DejaVuSans-61"/>
     <use xlink:href="#DejaVuSans-62" x="61.279297"/>
     <use xlink:href="#DejaVuSans-73" x="124.755859"/>
     <use xlink:href="#DejaVuSans-6f" x="176.855469"/>
     <use xlink:href="#DejaVuSans-72" x="238.037109"/>
     <use xlink:href="#DejaVuSans-62" x="279.150391"/>
     <use xlink:href="#DejaVuSans-73" x="342.626953"/>
    </g>
    <!-- heat -->
    <g style="fill: #2980b9" transform="translate(423.687422 178.068923) scale(0.09 -0.09)">
     <use xlink:href="#DejaVuSans-68"/>
     <use xlink:href="#DejaVuSans-65" x="63.378906"/>
     <use xlink:href="#DejaVuSans-61" x="124.902344"/>
     <use xlink:href="#DejaVuSans-74" x="186.181641"/>
    </g>
   </g>
   <g id="text_9">
    <!-- $\Delta H&gt;0$ -->
    <g transform="translate(412.8 94.427077) scale(0.1 -0.1)">
     <defs>
      <path id="DejaVuSans-3e" d="M 678 3150 
L 678 3719 
L 4684 2266 
L 4684 1747 
L 678 294 
L 678 863 
L 3897 2003 
L 678 3150 
z
" transform="scale(0.015625)"/>
     </defs>
     <use xlink:href="#DejaVuSans-394" transform="translate(0 0.78125)"/>
     <use xlink:href="#DejaVuSans-Oblique-48" transform="translate(68.408203 0.78125)"/>
     <use xlink:href="#DejaVuSans-3e" transform="translate(163.085938 0.78125)"/>
     <use xlink:href="#DejaVuSans-30" transform="translate(266.357422 0.78125)"/>
    </g>
   </g>
   <g id="text_10">
    <!-- Endothermic -->
    <g transform="translate(394.381875 69.84) scale(0.11 -0.11)">
     <use xlink:href="#DejaVuSans-45"/>
     <use xlink:href="#DejaVuSans-6e" x="63.183594"/>
     <use xlink:href="#DejaVuSans-64" x="126.5625"/>
     <use xlink:href="#DejaVuSans-6f" x="190.039062"/>
     <use xlink:href="#DejaVuSans-74" x="251.220703"/>
     <use xlink:href="#DejaVuSans-68" x="290.429688"/>
     <use xlink:href="#DejaVuSans-65" x="353.808594"/>
     <use xlink:href="#DejaVuSans-72" x="415.332031"/>
     <use xlink:href="#DejaVuSans-6d" x="454.695312"/>
     <use xlink:href="#DejaVuSans-69" x="552.107422"/>
     <use xlink:href="#DejaVuSans-63" x="579.890625"/>
    </g>
   </g>
  </g>
  <g id="text_11">
   <!-- Energy diagrams: exothermic vs. endothermic processes -->
   <g transform="translate(117.272813 14.878125) scale(0.12 -0.12)">
    <defs>
     <path id="DejaVuSans-67" d="M 2906 1791 
Q 2906 2416 2648 2759 
Q 2391 3103 1925 3103 
Q 1463 3103 1205 2759 
Q 947 2416 947 1791 
Q 947 1169 1205 825 
Q 1463 481 1925 481 
Q 2391 481 2648 825 
Q 2906 1169 2906 1791 
z
M 3481 434 
Q 3481 -459 3084 -895 
Q 2688 -1331 1869 -1331 
Q 1566 -1331 1297 -1286 
Q 1028 -1241 775 -1147 
L 775 -588 
Q 1028 -725 1275 -790 
Q 1522 -856 1778 -856 
Q 2344 -856 2625 -561 
Q 2906 -266 2906 331 
L 2906 616 
Q 2728 306 2450 153 
Q 2172 0 1784 0 
Q 1141 0 747 490 
Q 353 981 353 1791 
Q 353 2603 747 3093 
Q 1141 3584 1784 3584 
Q 2172 3584 2450 3431 
Q 2728 3278 2906 2969 
L 2906 3500 
L 3481 3500 
L 3481 434 
z
" transform="scale(0.015625)"/>
     <path id="DejaVuSans-79" d="M 2059 -325 
Q 1816 -950 1584 -1140 
Q 1353 -1331 966 -1331 
L 506 -1331 
L 506 -850 
L 844 -850 
Q 1081 -850 1212 -737 
Q 1344 -625 1503 -206 
L 1606 56 
L 191 3500 
L 800 3500 
L 1894 763 
L 2988 3500 
L 3597 3500 
L 2059 -325 
z
" transform="scale(0.015625)"/>
     <path id="DejaVuSans-20" transform="scale(0.015625)"/>
     <path id="DejaVuSans-3a" d="M 750 794 
L 1409 794 
L 1409 0 
L 750 0 
L 750 794 
z
M 750 3309 
L 1409 3309 
L 1409 2516 
L 750 2516 
L 750 3309 
z
" transform="scale(0.015625)"/>
     <path id="DejaVuSans-76" d="M 191 3500 
L 800 3500 
L 1894 563 
L 2988 3500 
L 3597 3500 
L 2284 0 
L 1503 0 
L 191 3500 
z
" transform="scale(0.015625)"/>
     <path id="DejaVuSans-2e" d="M 684 794 
L 1344 794 
L 1344 0 
L 684 0 
L 684 794 
z
" transform="scale(0.015625)"/>
    </defs>
    <use xlink:href="#DejaVuSans-45"/>
    <use xlink:href="#DejaVuSans-6e" x="63.183594"/>
    <use xlink:href="#DejaVuSans-65" x="126.5625"/>
    <use xlink:href="#DejaVuSans-72" x="188.085938"/>
    <use xlink:href="#DejaVuSans-67" x="227.449219"/>
    <use xlink:href="#DejaVuSans-79" x="290.925781"/>
    <use xlink:href="#DejaVuSans-20" x="350.105469"/>
    <use xlink:href="#DejaVuSans-64" x="381.892578"/>
    <use xlink:href="#DejaVuSans-69" x="445.369141"/>
    <use xlink:href="#DejaVuSans-61" x="473.152344"/>
    <use xlink:href="#DejaVuSans-67" x="534.431641"/>
    <use xlink:href="#DejaVuSans-72" x="597.908203"/>
    <use xlink:href="#DejaVuSans-61" x="639.021484"/>
    <use xlink:href="#DejaVuSans-6d" x="700.300781"/>
    <use xlink:href="#DejaVuSans-73" x="797.712891"/>
    <use xlink:href="#DejaVuSans-3a" x="849.8125"/>
    <use xlink:href="#DejaVuSans-20" x="883.503906"/>
    <use xlink:href="#DejaVuSans-65" x="915.291016"/>
    <use xlink:href="#DejaVuSans-78" x="975.064453"/>
    <use xlink:href="#DejaVuSans-6f" x="1031.119141"/>
    <use xlink:href="#DejaVuSans-74" x="1092.300781"/>
    <use xlink:href="#DejaVuSans-68" x="1131.509766"/>
    <use xlink:href="#DejaVuSans-65" x="1194.888672"/>
    <use xlink:href="#DejaVuSans-72" x="1256.412109"/>
    <use xlink:href="#DejaVuSans-6d" x="1295.775391"/>
    <use xlink:href="#DejaVuSans-69" x="1393.1875"/>
    <use xlink:href="#DejaVuSans-63" x="1420.970703"/>
    <use xlink:href="#DejaVuSans-20" x="1475.951172"/>
    <use xlink:href="#DejaVuSans-76" x="1507.738281"/>
    <use xlink:href="#DejaVuSans-73" x="1566.917969"/>
    <use xlink:href="#DejaVuSans-2e" x="1619.017578"/>
    <use xlink:href="#DejaVuSans-20" x="1650.804688"/>
    <use xlink:href="#DejaVuSans-65" x="1682.591797"/>
    <use xlink:href="#DejaVuSans-6e" x="1744.115234"/>
    <use xlink:href="#DejaVuSans-64" x="1807.494141"/>
    <use xlink:href="#DejaVuSans-6f" x="1870.970703"/>
    <use xlink:href="#DejaVuSans-74" x="1932.152344"/>
    <use xlink:href="#DejaVuSans-68" x="1971.361328"/>
    <use xlink:href="#DejaVuSans-65" x="2034.740234"/>
    <use xlink:href="#DejaVuSans-72" x="2096.263672"/>
    <use xlink:href="#DejaVuSans-6d" x="2135.626953"/>
    <use xlink:href="#DejaVuSans-69" x="2233.039062"/>
    <use xlink:href="#DejaVuSans-63" x="2260.822266"/>
    <use xlink:href="#DejaVuSans-20" x="2315.802734"/>
    <use xlink:href="#DejaVuSans-70" x="2347.589844"/>
    <use xlink:href="#DejaVuSans-72" x="2411.066406"/>
    <use xlink:href="#DejaVuSans-6f" x="2449.929688"/>
    <use xlink:href="#DejaVuSans-63" x="2511.111328"/>
    <use xlink:href="#DejaVuSans-65" x="2566.091797"/>
    <use xlink:href="#DejaVuSans-73" x="2627.615234"/>
    <use xlink:href="#DejaVuSans-73" x="2679.714844"/>
    <use xlink:href="#DejaVuSans-65" x="2731.814453"/>
    <use xlink:href="#DejaVuSans-73" x="2793.337891"/>
   </g>
  </g>
 </g>
 <defs>
  <clipPath id="p38d70e50fb">
   <rect x="10.8" y="75.84" width="271.8" height="201.36"/>
  </clipPath>
  <clipPath id="p8325b7735e">
   <rect x="293.4" y="75.84" width="271.8" height="201.36"/>
  </clipPath>
 </defs>
</svg>
